<mxfile host="app.diagrams.net" agent="Mozilla/5.0 (Windows NT 10.0; Win64; x64) AppleWebKit/537.36 (KHTML, like Gecko) Chrome/128.0.0.0 Safari/537.36" version="24.7.12">
  <diagram name="Page-1" id="WJgf06Pms1JpyzzCzn3s">
    <mxGraphModel dx="880" dy="434" grid="1" gridSize="10" guides="1" tooltips="1" connect="1" arrows="1" fold="1" page="1" pageScale="1" pageWidth="850" pageHeight="1100" math="0" shadow="0">
      <root>
        <mxCell id="0" />
        <mxCell id="1" parent="0" />
        <mxCell id="rs3FNmOiAIlKJfeYHdHE-92" value="" style="rounded=1;whiteSpace=wrap;html=1;fillColor=#dae8fc;strokeColor=#6c8ebf;dashed=1;" parent="1" vertex="1">
          <mxGeometry x="417.5" y="46" width="190" height="159" as="geometry" />
        </mxCell>
        <mxCell id="t43ziYTAwVNuNy0xqKiq-1" value="" style="rounded=0;whiteSpace=wrap;html=1;fillColor=#d5e8d4;strokeColor=#82b366;" parent="1" vertex="1">
          <mxGeometry x="64.63" y="40" width="800" height="540" as="geometry" />
        </mxCell>
        <mxCell id="t43ziYTAwVNuNy0xqKiq-3" value="&lt;b&gt;GAT Layer&lt;/b&gt;" style="text;html=1;align=center;verticalAlign=middle;whiteSpace=wrap;rounded=0;fillColor=#f5f5f5;fontColor=#333333;strokeColor=#666666;" parent="1" vertex="1">
          <mxGeometry x="377.5" y="10" width="200" height="30" as="geometry" />
        </mxCell>
        <mxCell id="t43ziYTAwVNuNy0xqKiq-4" value="" style="endArrow=classic;startArrow=classic;html=1;rounded=0;entryX=0.75;entryY=1;entryDx=0;entryDy=0;" parent="1" edge="1">
          <mxGeometry width="50" height="50" relative="1" as="geometry">
            <mxPoint x="110" y="210" as="sourcePoint" />
            <mxPoint x="179.5" y="209" as="targetPoint" />
            <Array as="points">
              <mxPoint x="180" y="209" />
            </Array>
          </mxGeometry>
        </mxCell>
        <mxCell id="t43ziYTAwVNuNy0xqKiq-5" value="&lt;b&gt;C&lt;/b&gt;" style="text;html=1;align=center;verticalAlign=middle;whiteSpace=wrap;rounded=0;" parent="1" vertex="1">
          <mxGeometry x="130" y="190" width="30" height="20" as="geometry" />
        </mxCell>
        <mxCell id="t43ziYTAwVNuNy0xqKiq-6" value="&lt;b&gt;N&lt;/b&gt;" style="text;html=1;align=center;verticalAlign=middle;whiteSpace=wrap;rounded=0;" parent="1" vertex="1">
          <mxGeometry x="80" y="240" width="30" height="20" as="geometry" />
        </mxCell>
        <mxCell id="t43ziYTAwVNuNy0xqKiq-7" value="" style="endArrow=classic;startArrow=classic;html=1;rounded=0;" parent="1" edge="1">
          <mxGeometry width="50" height="50" relative="1" as="geometry">
            <mxPoint x="101" y="220" as="sourcePoint" />
            <mxPoint x="101" y="280" as="targetPoint" />
          </mxGeometry>
        </mxCell>
        <mxCell id="t43ziYTAwVNuNy0xqKiq-8" value="&lt;b&gt;X&lt;/b&gt;" style="rounded=0;whiteSpace=wrap;html=1;" parent="1" vertex="1">
          <mxGeometry x="110" y="220" width="70" height="60" as="geometry" />
        </mxCell>
        <mxCell id="t43ziYTAwVNuNy0xqKiq-17" value="" style="verticalLabelPosition=bottom;verticalAlign=top;html=1;shape=mxgraph.basic.x;fillColor=#a20025;fontColor=#ffffff;strokeColor=#6F0000;" parent="1" vertex="1">
          <mxGeometry x="190" y="245" width="10" height="10" as="geometry" />
        </mxCell>
        <mxCell id="t43ziYTAwVNuNy0xqKiq-18" value="" style="endArrow=classic;startArrow=classic;html=1;rounded=0;" parent="1" edge="1">
          <mxGeometry width="50" height="50" relative="1" as="geometry">
            <mxPoint x="231" y="210" as="sourcePoint" />
            <mxPoint x="310" y="210" as="targetPoint" />
          </mxGeometry>
        </mxCell>
        <mxCell id="t43ziYTAwVNuNy0xqKiq-19" value="&lt;b&gt;F&lt;/b&gt;" style="text;html=1;align=center;verticalAlign=middle;whiteSpace=wrap;rounded=0;" parent="1" vertex="1">
          <mxGeometry x="255" y="190" width="30" height="20" as="geometry" />
        </mxCell>
        <mxCell id="t43ziYTAwVNuNy0xqKiq-20" value="&lt;b&gt;C&lt;/b&gt;" style="text;html=1;align=center;verticalAlign=middle;whiteSpace=wrap;rounded=0;" parent="1" vertex="1">
          <mxGeometry x="200" y="240" width="30" height="20" as="geometry" />
        </mxCell>
        <mxCell id="t43ziYTAwVNuNy0xqKiq-21" value="" style="endArrow=classic;startArrow=classic;html=1;rounded=0;" parent="1" edge="1">
          <mxGeometry width="50" height="50" relative="1" as="geometry">
            <mxPoint x="221" y="220" as="sourcePoint" />
            <mxPoint x="220" y="280" as="targetPoint" />
          </mxGeometry>
        </mxCell>
        <mxCell id="t43ziYTAwVNuNy0xqKiq-22" value="&lt;b&gt;W&lt;sub&gt;1&lt;/sub&gt; of Head 1&lt;/b&gt;" style="rounded=0;whiteSpace=wrap;html=1;" parent="1" vertex="1">
          <mxGeometry x="230" y="220" width="80" height="60" as="geometry" />
        </mxCell>
        <mxCell id="rs3FNmOiAIlKJfeYHdHE-4" value="" style="html=1;shadow=0;dashed=0;align=center;verticalAlign=top;shape=mxgraph.arrows2.arrow;dy=0.75;dx=13;notch=0;fillColor=#a20025;strokeColor=#6F0000;fontFamily=Helvetica;fontSize=12;fontColor=#ffffff;" parent="1" vertex="1">
          <mxGeometry x="440" y="255" width="220" height="20" as="geometry" />
        </mxCell>
        <mxCell id="rs3FNmOiAIlKJfeYHdHE-8" value="" style="endArrow=classic;html=1;rounded=0;" parent="1" edge="1">
          <mxGeometry width="50" height="50" relative="1" as="geometry">
            <mxPoint x="20" y="249.5" as="sourcePoint" />
            <mxPoint x="80" y="249.5" as="targetPoint" />
          </mxGeometry>
        </mxCell>
        <mxCell id="rs3FNmOiAIlKJfeYHdHE-10" value="" style="endArrow=classic;startArrow=classic;html=1;rounded=0;" parent="1" edge="1">
          <mxGeometry width="50" height="50" relative="1" as="geometry">
            <mxPoint x="341" y="210" as="sourcePoint" />
            <mxPoint x="420" y="210" as="targetPoint" />
          </mxGeometry>
        </mxCell>
        <mxCell id="rs3FNmOiAIlKJfeYHdHE-11" value="&lt;b&gt;F&lt;/b&gt;" style="text;html=1;align=center;verticalAlign=middle;whiteSpace=wrap;rounded=0;" parent="1" vertex="1">
          <mxGeometry x="370" y="190" width="30" height="20" as="geometry" />
        </mxCell>
        <mxCell id="rs3FNmOiAIlKJfeYHdHE-12" value="&lt;b&gt;N&lt;/b&gt;" style="text;html=1;align=center;verticalAlign=middle;whiteSpace=wrap;rounded=0;" parent="1" vertex="1">
          <mxGeometry x="310" y="240" width="30" height="20" as="geometry" />
        </mxCell>
        <mxCell id="rs3FNmOiAIlKJfeYHdHE-13" value="" style="endArrow=classic;startArrow=classic;html=1;rounded=0;" parent="1" edge="1">
          <mxGeometry width="50" height="50" relative="1" as="geometry">
            <mxPoint x="331" y="220" as="sourcePoint" />
            <mxPoint x="330" y="280" as="targetPoint" />
          </mxGeometry>
        </mxCell>
        <mxCell id="rs3FNmOiAIlKJfeYHdHE-14" value="&lt;div style=&quot;text-align: left;&quot;&gt;&lt;font face=&quot;-apple-system, system-ui, BlinkMacSystemFont, Segoe UI, Roboto, Oxygen-Sans, Ubuntu, Cantarell, Helvetica Neue, sans-serif&quot;&gt;&lt;span style=&quot;background-color: rgb(247, 247, 247);&quot;&gt;&lt;b&gt;H&lt;/b&gt;&lt;/span&gt;&lt;/font&gt;&lt;/div&gt;" style="rounded=0;whiteSpace=wrap;html=1;" parent="1" vertex="1">
          <mxGeometry x="340" y="220" width="80" height="60" as="geometry" />
        </mxCell>
        <mxCell id="rs3FNmOiAIlKJfeYHdHE-46" value="" style="endArrow=classic;startArrow=classic;html=1;rounded=0;entryX=0.75;entryY=1;entryDx=0;entryDy=0;" parent="1" edge="1">
          <mxGeometry width="50" height="50" relative="1" as="geometry">
            <mxPoint x="679" y="90" as="sourcePoint" />
            <mxPoint x="748.5" y="89" as="targetPoint" />
            <Array as="points">
              <mxPoint x="749" y="89" />
            </Array>
          </mxGeometry>
        </mxCell>
        <mxCell id="rs3FNmOiAIlKJfeYHdHE-47" value="&lt;b&gt;N&lt;/b&gt;" style="text;html=1;align=center;verticalAlign=middle;whiteSpace=wrap;rounded=0;" parent="1" vertex="1">
          <mxGeometry x="699" y="70" width="30" height="20" as="geometry" />
        </mxCell>
        <mxCell id="rs3FNmOiAIlKJfeYHdHE-48" value="&lt;b&gt;N&lt;/b&gt;" style="text;html=1;align=center;verticalAlign=middle;whiteSpace=wrap;rounded=0;" parent="1" vertex="1">
          <mxGeometry x="649" y="120" width="30" height="20" as="geometry" />
        </mxCell>
        <mxCell id="rs3FNmOiAIlKJfeYHdHE-49" value="" style="endArrow=classic;startArrow=classic;html=1;rounded=0;" parent="1" edge="1">
          <mxGeometry width="50" height="50" relative="1" as="geometry">
            <mxPoint x="670" y="100" as="sourcePoint" />
            <mxPoint x="670" y="160" as="targetPoint" />
          </mxGeometry>
        </mxCell>
        <mxCell id="rs3FNmOiAIlKJfeYHdHE-50" value="&lt;b&gt;A&lt;/b&gt;" style="rounded=0;whiteSpace=wrap;html=1;" parent="1" vertex="1">
          <mxGeometry x="679" y="100" width="70" height="60" as="geometry" />
        </mxCell>
        <mxCell id="rs3FNmOiAIlKJfeYHdHE-51" value="" style="endArrow=classic;html=1;rounded=0;" parent="1" edge="1">
          <mxGeometry width="50" height="50" relative="1" as="geometry">
            <mxPoint x="713.5" y="15" as="sourcePoint" />
            <mxPoint x="713.5" y="66" as="targetPoint" />
          </mxGeometry>
        </mxCell>
        <mxCell id="rs3FNmOiAIlKJfeYHdHE-53" value="" style="shape=image;verticalLabelPosition=bottom;labelBackgroundColor=default;verticalAlign=top;aspect=fixed;imageAspect=0;image=data:image/png,iVBORw0KGgoAAAANSUhEUgAAAGUAAAAgCAIAAACEiyFHAAAGRElEQVRoBe1Z30sUXxS//8A8+BD4GkT0EIaIIAj1lPSywaoIKmWauEVqErgiwsrKvLgKglL2EEhFGLlI4FLp0pIYIwqyihu1LYmyO864rtNM68597ev3xuk619294w/4+sV5WM6cOff8+Jxzz/2xCPM9mUxGURT5oEdVVdM0+dSceinEGYEkSaWlpV1dXaIo1tbWXrp0qaenRxTF1tbWiooKWZY59Zx2MV68njx5Eg6HSbQ+n6+xsXFnZwdjnEwmBwcHNU077UBw+o8ymUxeUVVVnz59uru7SwCqq6vz+XxklKIoo6OjoMEwjOfPn4uiODAwsL6+DvxjITY2NlZXV2lVuq7Pz88Tx2j+0ent7e3h4WFRFIeHh7e3t4nCWCzGVV/JZDKRSJAx0Wi0rKwsGAySV13XNzY2wD9N0zo7O/1+/8ePH5PJJPCPhQiFQmNjY7QqWZY9Hs9JVLeu67Ozs1NTU62trdBt0uk0F160i4FAoKysLBqN0kygNU3zeDxgAPhbW1vV1dVo/9PW1mYYRigU2s9GgiDMzs7CWCD48ZqcnLToLCwslCRJ07Tm5mbLJ5fL9fPnT7BCE2w4tvGimxetmtCsAVpGVVWHw1FYWDg3N0fzMcaBQAAh1NTUlEqlLJ/glR8vMuT169cIoQcPHui6DkqgpQiCMDMzQ/NZmg3HHl7JZJJuXjwGaJnl5eXLly9XVFTA7IavPp8PITQyMgIclrCFl2maPT09CCHLFMYYk5Zy9erVtbU11grNOSpekUikuLgYmhetmtCsAVqGFBGZhjR/Z2ensbFREIRQKETzLbQtvEhqyTS06AkGgwih5ubmvI2PDcdefeVuXhhj1gD4appmb2/vURJuC6+VlZWioqJD1zJxmw1nH16ZTObTp09er9fj8aysrGiaRpZSsktwuVwXL14sKCiorKwcGhqCVRYQyY3X0RNuC68j1nJ+vFKplNvtbmpq+v79eywWc7lcV65c4SlaTrxIwktKSt68eTO9/+no6MjbvDDG/HhBLbvd7v2mpsfHx4uKinia14Hp/1Nfuq4/fPjw2rVrP378IPGTSd7X10fDkZdmCxiGkITfuHFD3P+0t7cXFBTkbV628IJafvToEW3N6/Vev36ds3nlwmtqakoQBHqnPjExgRAKBAIQMA+RDS9IOP9qFYlEamtrY7EY2OWvr8M1r3g8Xl9fv7CwABbZcPbqK5VK3bp168KFC4uLi0SUhFdcXByJRGAwD8EaIKMg4ZIkWfRkW62i0eiLFy/orRM/XodrXrIsj46OxuNx8JANZw8vsktwOp2qqtLh1dXV2T3TsAaIwsMlHPwmBCdeh6hliyF4ZcPZw4ucSDo7O+HgSsIjzevLly959yk5DJBPZHZz7rwymczMzMzIyMjm5iZo5u9fqqo6nU5bOy9i0efz0dM/a/8i226PxwPOvX37ljSvf+4C3W431B0IZCPYhGCM7Sb8/fv3wWBwaGiI7qf8eNmtZdM0/X7/0tJSKBSynCXZcP72L6gvSZLKy8vPnz+/sLAwNzc3ODjIf33KGsAYy7LscDjOnTv3+fNnGmjTNMnB+Pbt23Bs/PXr1/j4eDweb2hoePfuHS3PMx9N03z16tWBx0ZFUWpqahBCHz58oNUmEonJyUnTNJ89ewYgEAE2nD28MMarq6sOh6O9vb2lpaW7u5u81tfXt7S00Nc1RDjHr8UAmYb0fQCZJqlU6s6dOzQfIUTnVpKk6upqRVFoW7nxItPQopN0gOnpaUEQ6E/sFYhhGG1tbS9fvqQtWsLBGP/BC2NMbuhh155OpxVFMQyDHp+XZg3kHcIKmKbZ/++j6zrtQG68WD22OIlEwul0wg6BjGXD+YuXLe3ZhFkD2SRz8BVFqaqqWlxcDAQCX79+BckTxUuSpJs3b1oqmg3nv4jX1tbW3bt3Hz9+7Pf76dZ5oniNjY1ZmlfW9RESeHSCTcjhdKbTaVgBQMPJ4UWa18TEBNgiBBvO8dfXKbq/393d7e/v93q94XDY4XB8+/YN8Mp6f8/z/xBoyUuc6P9DiUTC8r+BruvhcBi22XndswgYhuF2u+/fv3/v3j362IgxPvD/oXg8fsz1ZXHo//d6hpe9nJ7hdYaXPQTsSZ/V1xle9hCwJ/0b36k/jtrUvTAAAAAASUVORK5CYII=;" parent="1" vertex="1">
          <mxGeometry x="440" y="220" width="101" height="32" as="geometry" />
        </mxCell>
        <mxCell id="rs3FNmOiAIlKJfeYHdHE-55" value="" style="curved=1;endArrow=classic;html=1;rounded=0;" parent="1" target="rs3FNmOiAIlKJfeYHdHE-50" edge="1">
          <mxGeometry width="50" height="50" relative="1" as="geometry">
            <mxPoint x="590" y="195" as="sourcePoint" />
            <mxPoint x="630" y="145" as="targetPoint" />
            <Array as="points">
              <mxPoint x="640" y="195" />
              <mxPoint x="590" y="145" />
            </Array>
          </mxGeometry>
        </mxCell>
        <mxCell id="rs3FNmOiAIlKJfeYHdHE-56" value="" style="endArrow=classic;html=1;rounded=0;dashed=1;" parent="1" edge="1">
          <mxGeometry width="50" height="50" relative="1" as="geometry">
            <mxPoint x="713" y="164" as="sourcePoint" />
            <mxPoint x="713" y="189" as="targetPoint" />
          </mxGeometry>
        </mxCell>
        <mxCell id="rs3FNmOiAIlKJfeYHdHE-59" value="&lt;b&gt;N&lt;/b&gt;" style="text;html=1;align=center;verticalAlign=middle;whiteSpace=wrap;rounded=0;" parent="1" vertex="1">
          <mxGeometry x="699" y="190" width="30" height="20" as="geometry" />
        </mxCell>
        <mxCell id="rs3FNmOiAIlKJfeYHdHE-60" value="" style="endArrow=classic;startArrow=classic;html=1;rounded=0;" parent="1" edge="1">
          <mxGeometry width="50" height="50" relative="1" as="geometry">
            <mxPoint x="670" y="215" as="sourcePoint" />
            <mxPoint x="670" y="275" as="targetPoint" />
          </mxGeometry>
        </mxCell>
        <mxCell id="rs3FNmOiAIlKJfeYHdHE-70" value="N" style="edgeLabel;html=1;align=center;verticalAlign=middle;resizable=0;points=[];" parent="rs3FNmOiAIlKJfeYHdHE-60" vertex="1" connectable="0">
          <mxGeometry x="-0.1" y="-4" relative="1" as="geometry">
            <mxPoint as="offset" />
          </mxGeometry>
        </mxCell>
        <mxCell id="rs3FNmOiAIlKJfeYHdHE-61" value="&lt;b&gt;E&lt;/b&gt;" style="rounded=0;whiteSpace=wrap;html=1;" parent="1" vertex="1">
          <mxGeometry x="679" y="215" width="70" height="60" as="geometry" />
        </mxCell>
        <mxCell id="rs3FNmOiAIlKJfeYHdHE-65" value="" style="shape=image;verticalLabelPosition=bottom;labelBackgroundColor=default;verticalAlign=top;aspect=fixed;imageAspect=0;image=data:image/png,iVBORw0KGgoAAAANSUhEUgAAAQ8AAADOCAIAAACvjhDMAAAgAElEQVR4Ae2dC2xU1f7vZ9pMZ9pMX+nLSIFbpAYELg8bAf+xFiIPL+ghiHIiSIOoEcF4oEYejRaaUiAg9H88Hi+gJ6J4VcDIKxQwVmmgQEpbbmlLKC23D5qZPu489vznsbf7cWF+x3UXex6dmU7nUX47pKy99nrs/V3rM+u9lkLCCxVABXxTQOGbM3SFCqACEtKCmQAV8FUBpMVXpdAdKoC0YB5ABXxVAGnxVSl0hwogLZgHUAFfFUBafFUK3aECSAvmAVTAVwWQFl+VQneoANKCeQAV8FUBpMVXpdAdKoC0YB5ABXxVAGnxVSl0hwogLZgHUAFfFUBafFUquO4EQZAkSRTFgIMFvyJ10UFR1oFHQQeIZknCOchhygUcx1mtVkEQDAZDe3u7KIpWq9X1XXielyRpYGDAbrcLzstms1ksFrgFJMBeEATeeYmiaLPZaFpos2sUaOO7Ali2+K5VMF2yzksURZ1Ot2vXrrt379rtdtcILBZLVVXVxo0bi4uL7969K0lSU1MT0MLzvCiKBBKe5xsaGnp7eyVJImgBSEiLq7CB2SAtgek2VF8cx0EQbW1tJSUlOp1OkiQoSUjQFovl5MmT+/btM5lMr7766ocffnjaeXmihWXZf/7zn83NzTabjRQ4UOUjYaJhKAogLUNRL3C/JBM3NzeXlpbq9XrXsARByM/PP3nyJMuyFoulsrJyy5YtDofDEy12u72jo2PlypV9fX1Ii6ueQ7dBWoauYSAhkDb67du3y8rKOjs7CT8kuJ6entGjR586dQqaNwsWLKiqqmJZ1uq8LBYLFFCiKNrtdihP7pdOJSUlu3btIv0HsvKKBI6GABRAWgIQLWheBEGQ0QLMWK3WO3fu/O1vf0tPT1+6dGlFRcWlS5dGjx7d1dXFMEx/f/93332Xn5+/Z88ehmGKiooOHjxosVjgtc6cOTNt2jSTycQ5r6C9KwaEfWLhzQNAS2lpaVdXF5QGLMvCK1ksFqPROHHixJ9++olhmE8//XTSpEl0+bN27dr8/PzW1tbi4mLSQ8AwTHt7e3JycmNjI8/zLMvSXsL7sWGJ3UsPB3lEXozYgIHYEwOWLUSKMBhcaYGXgM4uk8k0evTo8+fP3+/m2rRp08yZM3meFwTB4XCYzWar1Tpr1qw5c+Z0dXVJkmSz2cCvTqfLzs4+c+YM3JIyJwyfFwFR0gDIXoc8IvbEBmkhmkSQAWjZvn17d3c3vBZwwnEctE/Gjx9fXV19f8hl/fr1eXl5kiRB7ud53uFwlJWVPfnkkzdu3JAkyeFwWK1WURRbW1vHjBlz7NgxCJB0vkXQZ4fqVSDTkw4PmgEZGPStzD3tC8uWUCWdu3i80+JwOKCVbzKZysvLp0yZQmpckiRdv37966+/3rhx4/z583t6ehwOB4y03L17NyMj48qVK4IgkLa+u8hHvh1kdJL74TeIVE1pQmgzcU9bglhISzgzDdCybdu2e/fuwUQYMuDIcZxOp8vMzDxx4oQkSVVVVdnZ2UajkWVZjuMGBgY++ugjhmHMZnNeXt6uXbssFgtUxurr65944om+vj4Y2ifBQtqH82tDHjcRk0hhNBr7+/s9jd4CJ1DdlTGDtIQ89Vwi9E7Lt99++/LLL5eWltbV1el0ulmzZtXU1HAcZ7fb9+3bt23bNrPZ3NHRUVxcXFhYCJ3LgiD84x//WLVqlclkgryCtAAqPM9XV1fPmDFj3rx5RqORwAAlMPyUeKKFpBuWLUSKMBhcaSEJRtKY/C5+//3327dvN5vN5BH0EcMkGuhMMxgMq1atamxspGsRtDkMHxnyKGEAiud5KGyNzmvLli3p6elqtXrs2LGyeXQwYc9ms61duxaafHV1dc8+++yZM2d6enroya9IS8gTk4rQOy307x/MiyktLb1y5QqhRWaQJOnnn38+c+aM3W6nCaHNVOQj1gg/HIIgWK1WjuPa29uff/55hfOaPn365cuXOY5z1cRkMhkMhuXLl7/11lvHjx8/ffo0DOyKogh1M5yDHOYc44kWmhNI176+Puj4un79Ov2UNlssFuhAczgcdG6gzWH+4NBGzzDM2bNnc3JykpOTFQrFe++9d+/ePegpoTWBCeCCILAs29raOm7cuKKiIoZhoOORZVnSWYJlS2gT8OHYfKdFkiSO46CbmCaENkPYgiAwDCPLDeT24fij+458FMnN5HsEQbDZbOXl5VqtNjY2NjExsaKiAmRxOBxGo5H4FQSB4zibzQYlCcMwy5cvf+aZZ/R6PRkphmBFUURaiMJhMLjSQlJRZqBfDprvNCfgmHYzss20OKAD9A6T/F1TU5Ofnx8XF5eQkDB58uRr16657emCcAAYh8Nht9u//vrry5cvL126dMOGDdAshB5ncIm0hDNfIS2BqU9yOVneA+FYrVaLxXLo0KGxY8fGxMSkpaWtWbOmu7vbbDbLVjHQvEE73mq1Hjt27KuvvpIkqba2duzYsT/88AOMYkE3gCAISEtg6RUcX77Q4jYmOrFd6yFuvYwkS1daHA4HwzBdXV3r1q1LS0uLiYkZO3bsoUOHDAaDw+GgyweZdKCew+Ho7u6uqKiorKy02Wy3bt3avXv3/v379Xo9VIChBENawpmLkJbA1HelBQZw582bp1QqVSpVfn5+TU0NTG6QJMlsNsvGnQgzgAFZ1wDdiZIkkUod7RJpCSy9guPLF1ogtYIT38gKBcZV4Lf/888/Hz16dGxsbFZWVnFxcWdnJ1SiAAaS413LYdIIpLvjwRf8pTFDWsKZg5CWoauv1+sLCwsVCoVKpXrqqae+++47GGkRRdFisfhIC42Kl/4ApGXo6RV4CEiLJ+28lAbES19fX1VV1axZs1QqVXx8/AsvvNDW1kZWKMCUFpoW4pE2QER0YULPhaFfA3uQad3CYEZaPIlOZ1NJksjEYdr9zp07s7OzY2JiEhMTt2zZYjabyUiiKIpkRJ/kftovMSMtRIrIMtA5ACrQPM/funVr+/btMB8psl43fG8jy8FkNxzI9w6H486dO6+++mpMTIxCoZg0adKFCxdk2sJ0FZmlpw+SOZPd0r6wJkarMbxm12RAWtwqDkKR2hHHcYIgQG+V3W4/depUbm5uXFxcamrqokWL+vv7LRaLTFu3t27johvxg/pCWjxpGHx7WWLATyaWLa5Cu65LIUXx5s2b451XYmJicXExLLGGCphMXtdb14j8tUFa/FUscPey9ENaPEnplpY7d+7MmTNHoVDExcUVFBRUVVVJkmS1WslMYZm8rreeovPdHmnxXauhupSlH9LiXVCogMEI4+nTpx977DGlUqlWq5ctW9be3k7a7jJVvdx6j86Xp0iLLyoFx40sIZEW77LCaMn9HaI3bdo0atQopVKZmZl56NAh2JdDtkZFpq3bW+/R+fIUafFFpeC4kSUh0uJFVqhf1dbWPv3002q1WqFQ5Obm/vLLL1D1Yhhm0Na5TG3XUXwvsXt6hLR4Uib49rL0Q1q8SCyK4oEDBx5//HGNRhMfH//+++/r9XpYOWyz2dyu6JLJ63rrJTofHyEtPgoVBGey9ENa6GFH2FUQxkkGBgZWr16tVqtjYmIyMjK+/fZbg8EADRjSrYztliDkyEgOAmlxmzpkv2ZYgtLQ0DB16lSFQpGWljZt2rTa2looSaC5grS41XAEWiItrokKJ5nBJiwcx+3fvz8rKys2NjY1NXX16tU25wWrrOHsNKTFVcORaYO0uKYrnKvBcZzFYlmyZElCQoJCocjJyamsrOzv74fyxO68wEwm2GNNzFXMEWWDtJDkhMUnZBLkuXPnJk2alJiYGBsb+/rrr7e3t5vNZpjqQubPQ6eWTEO/bknsARuwlR+wdH57lCXto9nKl/Xk9vX1ffTRR5mZmTBIv2nTJthAHZr7MEBJe5Fp6Net3wnm4gFpcZFk2CxkSTviaSHfK1MU9liRJOny5ctLliyJiYnRaDRTp049ceIE7Ephs9nIQL7MLwkzAIMsqABukZYARAvQiyyBHx1a6MIBmuwsyx47dmzKlCkqlSohIWHZsmXd3d2iKDIMQ58j4Cq0TEO/bl1D89cGafFXsWC6974aLJgxhTYsOhNDcQHdxLDrV39//+bNm3NycpRKZVJS0t69e70TEtp39xYb0uJNneF+9ujQAguARVFsaWmZNWsWTGaZNWtWdXU1GZgfbrWHHj7SMnQNAw9hZNMCYyOwQQTs9/X9999Dgz4pKWnVqlV6vd5oNNIj+oFLGRKfSEtIZPYQyYikhYyE0LT09PSsW7cuOTk5Li4uIyOjoqICRk7I6KQHhSLLGmkJZ3qMPFqg59dut8OICojb2Ni4YMEClUqlUCimT59eX1/P8zy95Au4gtZOONNjsLiRlsEUGs7nI4wWaNATwex2u81mO3LkiFarheNT3nnnnf7+fpiNb7fbOY6DehrSQkRDg0cFRhgtZCdVSZIYhtHpdGvWrImNjYUTuX788UfoPoY9Jq1WK8uyMFRP96F5FCsCHmDZEs5EiHZaXLf5ggoYwzDNzc0zZ86EtcEFBQX19fUgNFTAyPHCdKmCNbFw5sXIjzuqaYF6F5x6CROEoZv4/t+SkpKcnByFQpGRkVFcXAwjj7IxSpI6pFcAaSGaoMGNAtFLi81mI7vQw6QEnuetVuu9e/deeeWVpKQkhUKRl5d34sQJm81GTvZzI4FzH0qsiblVBi0fUiB6aYHPYFkW5nRJkmQ0Guvq6saPHx8XF6dUKl9//fWWlhY4r5ycXPfQx/95Q1D50yJy/8d2SzjTJkppEUWRPmXOZrMNDAx88skncMijSqX67LPPjEYjFClEX081MaSFSIQGbwpELy3kqxiGaWpqmjNnTkJCQkpKSm5ublVVFWw3QTAATsgt8Rt1BixbwplkUUoL9BSzLNvb23vs2DGofWk0msLCwu7ubmjrk7YKgYQYwqn40OJGWoam39B8Ry8tLMveu3dv69at6enpMTExY8aM+fzzz+FMCLLDN8FDZhiaZuH0jbSEU/3opaWqqmru3LlqtVqlUs2aNauyspJ0IsMCetiYQsYJ3IZT8aHFjbQMTT9/fMuyThStBoO9IUkF7ODBgxkZGTCcsmHDhoGBAah9wWziKBo/8Sf1HrhFWvxVLHD30UgLVKtMJpMgCDabTa/Xb9iwQaVSQe3r8OHDZrPZZDLBVmBIS+CZA33KFIhGWshwis1mu3btWl5enkKhUKvV8+bNq62thQFKmHEMUySjayaLLIEGvcWyZVCJguYgWmihZ39BI8RgMHzzzTdpaWkajSYzM3P9+vX3B1igX9jhcPA8D/O+HA4H0hK07PKIBxSNtNjt9tbWVjjkMS4uLjMz89SpU2SqC7ABf8mSFfKZIy+5sWwJXZqSbASGSG7lQwcXy7Jnz56dPn06bPa1ePHitrY2u90O8ynJvniu5Qn5wNCJG5KYkJaQyOyMJFpogf2++vv7S0pK0tPTtVptVlbW+vXrrVYrTMi3Wq2eCKG/MXTKhiompCVUSksSnZOg0h+xZxq3t7fPnz8fphJPnTr14sWLvb29ZP0wKVVkXyS7DZ2yoYoJaQmV0hFPC2nc//7779nZ2XAmxF/+8peWlhZBEMi5waAXgOFqDp2a4YgJaQmd6q4/vRFVtgiCYDKZSktLk5OTExMT09LSdu/erdfreZ6HnmJPhND2oVMzHDEhLaFTPZJpsVqtsDMLbDcxffr06upqaKXwPE82yPM06z50IoY1JqQldPJHMi0//vjjjBkzYmJilErl2rVru7q6BEFgGIZlWbvdTu81ETq9Ii8mpCV0aRIJtEDhAFO54KhHq9VaWFiYkZGhVqvHjx9/8ODB3t5e8qqk72sEz/7yPQcgLb5rNVSXJAuCISzjLTA/hUyCvHz58pQpU9LS0pKSkvLy8q5cuUJa8/CSQAthhnzCULWITv9IS+jSjWS1MNLCsiwZM9m/f39qampKSopKpVq3bt3AwIDrmkekhc4fSAutxvCaI4EWhmF4nh8YGCgsLExKSkpMTBw7duzx48eh4wvGJelKF9JC5wmkhVYj1OYQrAYTRdHhcFgsFpj+KEnSb7/9NmHCBJXzeuGFF2pqamg8ZEjTt6FWJ/LiQ1rCmSYhoAU+D7qAdTrdrl27tFqtRqNJSkr64IMPenp6JEnysoYeaaHzB9JCqxFqc2hogcOBm5ubV65cqVQqY2JiRo8efezYMWjA0COPNBuu5lCrE3nxIS3hTJPhoIVMYCEfZrVaf/7557y8PI1Go9Vqly1b1tnZSVbPIy1EqEENSMugEg2jg6DTAsenkG1XTSaTwWA4cOBAdna2SqXSarXFxcUOh4McVA9DLmSFsGtPMV3CDKMQURI00hLOhAoiLZDvCQYwCtnU1DRv3jyNRqNQKCZMmHD69GnYxEiipnjSK4SRFu+5AWnxrs/wPh1WWn766afc3Nx45/X666+3tbVJkgTjLbCHC9TZYH4xnE+PtHhPb6TFuz7D+zSItMCLiqIIO3lv2bIlPj5erVbHxcV99tlnBoMBDk4xGAzQXwyrI6GiRR/Q5aU3eXi1iIbQkZZwplJQaIEuL9hKwm63NzY25uXlKZXK2NjYyZMnX7hwgW570Ga6PkbbezKHU6nIiBtpCWc6BIUWMmBit9t//PFHtVqt1WrT0tLWrVvX1dVlMpk85X5/7cOpVGTEjbSEMx2GTgvHcRaLhWEYvV6/ceNGlUoVGxs7bty4Q4cOmUwmeqa9v2y4ug+nUpERN9ISznQYOi1w7umNGzcKCgo0Go1arc7Ly6urq4NzUuHbXPN9YDbhVCoy4kZawpkOAdMCO6lyHGe1WsvKysaNG6dQKLRa7fr16+EgrnB+1ciNG2kJZ9oGTAscot3R0bF69eqUlBSFQjFx4sQTJ05IkmR1XuH8qpEbN9ISzrQNjBaYV19XVzdjxgzYlfjFF1+sr6+HURSY/RXOrxq5cSMt4Uxb77SQVcGyVzQajRUVFVCkJCQkbNu2rbe3F/aPRFRkWgX3FmkJrp7+heaFFgiIZVme52FNMvQUt7W1LVu2DBr0ubm5X331FZwV4V/E6DogBZCWgGQLkqdBaSHxwDSwo0ePzpw5U6FQxMTELFmy5O7duzCDGIgijtEwTAogLcMkrE/BeqEFqmGw5lGSpPvLtkpKSuLi4hITE5988snS0lJS4JhMJo7jwL1PsaKjQBVAWgJVLhj+vNMCJYbVaq2vr58/fz70EU+ePPn48eOiKJrNZmir2O12mBOJwAQjTbyFgbR4U2e4nwEtpaWlOp2OxAUMwHxhq9V66tSpnJwcrVYbFxf32muvwfxIGF6EKcMwJ1I2bE9CQ0MQFUBagiim30EBLVu3br179y7HcbDRhMPhIAsbP/jgg+TkZIVC8dhjj+3fv5/juP7+fjIST2gBAz3f3u9XQQ8+KIC0+CDSsDkBWsrLy/v6+uhILBZLXV3dnDlz4uLiFArF3Llzr1+/To6ARFporUJpRlpCqbY8LqDlk08+6erqgkXCMJnliy++eOyxx2ATozfffFOn08GmLdCSQVrkOobqHmkJldLu4iFli8FggOd37tx59913k5KStFptZmbmsWPH4DxHQojM4FoHAwfuYkO7oSqAtAxVwaH4B1q2b98+MDDAcVxNTc3s2bPT0tKUSuXzzz9/9epVq9XqutsqDQzSMhT9/fWLtPirWDDdAy0lJSXNzc2lpaWZmZlKpTIlJeXtt982mUwwH8xsNsPJ2jQkxIy0BDM9BgsrEFpIUmEH/2DyDvIcaCkqKpo3b15aWpparZ4wYcLJkydhHxae52H1vJe18kjLIBJ7eBxYHvabFoiGJFJfX5/RefX19fXi5VTAYDD09PR0dXXpdLo+56XX67u7u41GY39/v9FobG9v7+np6ejoaGhoOHLkSHp6ukqlUiqVTz31VH19vV6vHxgYAL96vV6n091zXj0PXzoPF7jy8HCEW+udF2RDUJ7+29/fPzAwoNfrvfz6eIDr39aB0EKOS+d5fu/evdud1969e8vwciqww3nt3Llzz549ZWVlFRUVf//738vLy8vKyrZu3bp58+a33npr4cKFM2bMGD9+vFarjY2NTUhImDt37rZt2/bv319eXr7bee3Zs2f37t27du0qd147H752ebjAlYeHI996586d5eXlkASyvyUlJbt37963b19HR4dAXSJ1/RsLD/8FQgvstQPMNDQ0tDqvhoaGRrycCrS2ttbW1l69erW5ubmxsfHatWuVlZU//PDDe++9l5+fn5KSkpCQEB8fr1AoVCpVTExMSkrKoUOHrly5Ultb29TUdO3atZaWlps3b7a0tDQ1Nd28efOG85Kpe9PDBc48PBz51o2NjTdu3Ghwd91yXr///rvdbqdgEShYRMnrNSRaoETjnBfAA+ZH/C80NhiGaWxs3LFjx5IlS3JyclJTU1UqVVxcnEajiY+P12g0zz777NatWysqKrZu3drT0wNHR8Amq7DanozAOJwX+/DlSWRw5enpyLbnnReQQDMAZrPZTDaFChEtJL6hN/FdvycybWRLrMiHk8m/ZOPt/v7+S5cu7dy5c+nSpdnZ2WrnFR8fD0PyGRkZzz///I4dO86dO9fR0QGJ19XVtWPHjp6eHtnI4xCl8PoTOZIfDqtufpctQaQlWhKNYRjYBBV+/sk8Lnh/nU538eLFsrKyhQsXJicnAxuJiYlarValUqWnp8+cOXPz5s0nT568v4kRBEVvg9/Z2VlWVoa0BCszRBwtwfqwqAvHYrHA9HidTnf/SK2PP/548eLFo0ePTkxMTElJUSqVCoUiMTFx1KhRL7zwws6dO3/99deOjg6GYWDDVZi9Qn+1KIrt7e3btm3T6XRYttDKBGxGWgKWLjgeYSlvd3d3XV1deXn5smXLxowZo1KpEhMTY2NjFQoFbHj30ksvffrpp7/++mtPTw9MIrZYLGRmMZTJZOUw9JTwPN/W1oa0BCednKH4QkvoepCD+GFhDEoURWjvklY17DkEW9BDISAIQltb28mTJzdt2lRQUJCenq7RaBISEtRqdXJycmxsbEpKyksvvbR9+/YLFy5AaKSVSdo2nhIPvh1oKS0t1ev1ULaEUZMREzWtucViMRgMVquV47iBgQGj0ciyLH2ggIwc7yIE0m7xHmIUPYXDGCCbQr+TKIpdXV2VlZUbNmx47rnnsrKyMjMz4Zwg2IsoMTFxwYIFFRUVFy9e7O7uZhgGmviB0SIIQnt7+44dO3p7e5GWYOUcURTIP+f5gSsWLfofHR3/55dffiksLLx79y7MJCLdYjRd3t/hUaQFqklQqnAcx7LsnTt3zp07t2XLlvz8fK1WGxMTo/jziouLGzt27OLFi0tLS3/55Zfe3l5Jkmw2G91RRoZrSd8lEZ1OCdoMDggtfX19SAsRbYgGJyq8KD74x7KOxsYbKanJv/1W9fnnn1+9epWMFspo8SXSR5EW4OTu3buVlZXFxcXz58/Pysq6vzGXQqFQKpUJCQlpaWlPPPHEqlWrDh8+fPny5Z6eHliJBYU4kVUURZggDK0RWOsLJTvthoaEmKEZAzWxsrKy3t5ewjDxi4aAFHgwTOX894cgcFYrY/kv8z+/+EdOztjv/tcRWL8NGeBRp8XhcJB+J5ZlLRYL3fMrCEJtbe2//vWv1atXL1y4MDc3Fzp54+Pj4QiHiRMnLl++/ODBg9euXevt7QUS6B5z0hqBVISsD2ZSqsjceElvGHxsa2tDWryo5OcjUZIEQEUUH9AiSaLDYbvX0zV+/LiNG/9mNpskSbLbbTz/h9tfN+/RjZCyBepCkGXpD+Y4rqmp6ejRo2+88cakSZOysrJgM66YP69Jkya98cYbhw4dqqurc/VOgqLLBJkl3NLkEAdeDFAf4Djuzp070MonR0Z68YWPvCrwABUnLX+I4h+ixPG8XZJEq5XZX/HphV/Ojf1vo0+dfrBVtCD88YjSApzALzpU/eF8rKNHj65atSovLy8pKQnqV2q1OjY2NjExcfLkyStXrjx8+PCNGzfg1FJyrBwpnekKFUFFVm74Swid0kgLrUaQzBQtEidKrCA6GIvhi//5j5or1SbT/634z33Tpv33mzf/t832X48oLbCrvMPhaG1tPXr0aGFh4bRp02ClLuChVqtTU1OnTp26YsWKAwcONDQ0mM1mhmEsFgtAAn9hQS9JNrotiLQQWSLb4IaW63VX31v3TmtrC2MxfvWvQ2+/s+bvf68QRX6k0QLVSmiQwY86+WmHnG2322/evHnkyJG1a9c+/fTTWq1Wo9GoVCrozcrKypo6deqGDRvOnz/f0NBAtyvoMsE7CZ58BSXTYLslKDJSgVC0OGtigsA+qJI5GzCCwAnCH846GMvznCDwfo20QCyR226BEXQY74N3NRgM9+7dq66u/vLLL5cvX56bm6tSqWDmYkpKikqlSk1NnTZt2ptvvnnixAnYIxiG0qG571Yd77TQT2nGqBQK3Ii0BK6de5+EFh7aLX/S8u/e5D/7yuD2/0/Udx+YO9tIpAWqRvC2Foulv7+/pqbmwIEDy5cvnz59enJyMkzpheHCtLS03Nzc99577+jRo7dv3yZ+SY8WlE6uO6dA+DQPtD60PW2m3QzRjLQMUUAX73JaRIlzli1RRQupQbl8nnsLURSNRuNvv/22d+/eV155ZcqUKVqtVqFQaDQapfPSaDSzZ8/esGHDiRMnbty44T4Upy0pT4iBZH3wRW5lL0nb02Yvcfn7CGnxVzEf3D8AhvQgQzXs4SKFFCwRWbZAVoPvJHv18jwPu5jCaAY0uPV6fXV19cGDB//6178+8cQT5DSfOOc1YcKEBQsWFBUVnTp1qr293Wq1kv4rH0R84ETGg4++htWZ61j+MJE5rF8RYYH/u4SB3uSH/4qSBP8CfOUQ1cTonArbMQqCYLfbdTrduXPnYPnUxIkTEzWjIbQAAAjVSURBVJ1XbGwsbNOYk5OzaNGijz/+uKqqqrW1lT53IYD2N/0OAaoVbG9IS7AVffCr+DAhD0Zg/vw3yELiQV8mFLTAgDrs98PzPMMwVVVVxcXFCxYsGDduHGx3olar452XWq1esGBBWVnZyZMnu7u7WZa1Oy+bzQZrSyDTQw9vtP8SIy2DZlD/HUQ5LTAN8dKlS+Xl5XPnzh03blxCQgIcsaBUKlUqVVJSUkFBQVFR0ZkzZ8gSXLLPvOsEKjJyj7T4n5keBR9ugRlqwSJJUoBlC9lxFKbiwvxCm80GP/w8z7Ms29fXd/78+dLS0tmzZ48aNSouLg62cVCr1VqtdsqUKc8999wnn3xSU1Nz+/Zt6Ckm60NIm4Q20GzQ5uhNfyxbhi3tSBOFGIIQVSC0wAQTWD4Fk3MJJHq9/uzZs2VlZYsWLYIFhjABPiEhQaPRjB8//tVXX92zZ09jY+PAwADLsqSShrQQVckPQRCSF4MIqgKB0AInHkJDgmGY27dvf/vtt++///4zzzzz+OOPww5AUIwkJyePGjVq6dKle/bsuXjxotFohEYIdI6R1YtkSIQuSVzNJBvJDEEVJKSBYdkSUrmHHFmAtECHbG9v7+zZs7OystRqdVpaGkzvTU1NHTdu3IsvvlhWVlZTU9Pb20tm0cMIg9t3pudluXICNjJIyK3bAKPCEmmJimQiLxkgLZB9W1paYMNFrVabkpKycuXK+xsFXb161WAwkPxNYhrUQIAhGPhoGDTkiHWAtERs0rh9sUBogS4pOJb6nXfe2bdv35UrV4xGI5ygQBZgATBuY3VribRAiU1+I9yqhJZhVCAQWsjsYLvdbrVa7XY7LLWFtj7LsuTIEb8+jOQSfw1+xRJRjrFsiajkGPRlhkQL7DMEhcmgMQ3qwF9IiPtBQ45YB0hLxCaN2xcLhBbIphAcbXYbAVp6UQBp8SJOBD4KhBZ6hiLSMpRERVqGol7o/T6ghVRpiAHeQ3br9uWQFrey+GiJtPgoVIQ4Q1rCmRBISzjV9z9uBRQOssVSZLSE9OrSIQ8MDMB8e1m5RLuha2sye7wlCrjSQktKnKEhQhTwiRaYwmQyPdi5zGKxrF69+vr16/ABpLYG3cf0V7na0E/RDPN9YB9kemdXIilKFGkKPKAFShJPf2G+o8PhsFqt69evP3ny5PLlyy9fvrxmzZr6+nqStDQbbsurSPvySHgfLFsiIRV8fwdfabHZbDzPf/PNNytWrFizZs277767efPmgYEBpMV3rV1dIi2umkSyzb9b+XS7xWQy8TxfU1Nz5MiR5uZmm83W0tIC54Z+/fXXb7/99ooVK9atW3f/JOt79+719/ffuHHj1q1b/f39er2+paWlvb0d6hiksHJLVCSLErJ3Q1pCJnVQIpLTAgsVjx8//tJLL509e/bTTz89c+bMpEmTYB5xYWHh+fPnV69efe7cuZUrV966daunp2fz5s1jxoy5cuXK/aOrX3vttfb2dpvNRlChOaRra0F5+2gPBGmJrhSU9yBLkmQymaZPn/7dd9/xPN/c3Dx37tyXX34Z1sSzLMswzIoVK5qamsg8/L6+vv/4j/8oKir67LPPWltbAQ+kxZd8gLT4olLkuJHTIooiwzDp6el1dXWSJJnN5oKCgo8//pisIoajsOBsXnLE+6VLl7Kzs+8f/Q5FE0y7JMBgTcxTeiMtnpSJTPsHtNAXx3E6nS41NfXatWuSJOl0usmTJ1dWVkIlipQbZGEwHB9z8+bNxYsXFxQUdHV1SZIU8Ell9Js8CmakJbpSWU4LlCc5OTlnz551OBxNTU2jRo26c+eOw+GwWCzwbQQV2C7VYrF88cUXTU1NCxcu/PDDD2FMhi5esGzxlCeQFk/KRKa9nBYYiPzoo4+Kior0ev2bb7759ttvl5SUHD58GBaB0RjAXP0tW7Zcv36dZdkLFy5kZGT89NNPcCwj1sQGTXKkZVCJIsqBnBYAwGAw7Ny588MPP9y3b19PT8/27dvPnDkDJQmskSQkdHZ2fvXVV9XV1aIo/v777wcPHvzyyy/vd5TBxq3gDMsWT0mOtHhSJjLtH6IFxvWhosU6L3KyOOR4+AaCiqx3mKaCeJS5iUwVwvVWSEu4lA8sXo+0kMYJXT5AHL7Q4slNYG85Un0hLdGVsnJaXKeN0SUGfBtt4685utQZ7rdFWoZb4eCGj7QEV0//QkNa/NMr3K4fooVeXCErNPx9T9q7v35HqnuZJm5PO4KyXeZypAoSdd+FtIQuyWQMIC2hkz5IMclpCVKwGIwbBZAWN6JElRXSErrkQlpCp/XwxIS0DI+u7kJFWtypEk12SEvoUgtpCZ3WwxMT0jI8uroLFWlxp0o02SEtoUstpCV0Wg9PTEjL8OjqLlSkxZ0q0WSHtIQutZCW0Gk9PDEhLcOjq7tQkRZ3qkSTHdISutRCWkKn9fDEhLQMj67uQkVa3KkSTXZIS+hSC2kJndbDExPSMjy6ugsVaXGnSjTZIS2hSy2kJXRaD09MSMvw6OpbqLgazDedIsUV0hLOlEBawqm+/3EjLf5rFjwfSEvwtAxFSEhLKFT2FAfS4kmZyLRHWsKZLkhLONX3P26kxX/NgucDaQmelqEICWkJhcqe4kBaPCkTmfZISzjTBWkJp/r+x420+K9Z8HwgLcHTMhQhIS2hUNlTHEiLJ2Ui0x5pCWe6IC3hVN//uJEW/zULng+kJXhahiIkpCUUKnuKA2nxpExk2iMt4UwXpCWc6vsfN9Liv2bB84G0BE/LUISEtIRCZdc44ER1nufb29t37NjR19cH5+PSh4K4+kKb8CqAtIRHf47jJEniOK6zs7O8vLyzs5PmBNaNhefNMFbPCiAtnrUZzidAC8/zfX19NTU1DodDkiQ4NZossRzO+DHsQBRAWgJRbYh+SNEhiqLD4YBT15GWIaoaAu9ISwhEdh8FNF3oZ6RUITjRT9EcdgWQljAnAQEDz0wPc0r4ED3S4oNIw+mEpoXneWCGLmSGM3IM2z8F/h+lLQ7PzvQb4gAAAABJRU5ErkJggg==;imageBorder=default;" parent="1" vertex="1">
          <mxGeometry x="550" y="215" width="52.62" height="40" as="geometry" />
        </mxCell>
        <mxCell id="rs3FNmOiAIlKJfeYHdHE-69" value="" style="html=1;shadow=0;dashed=0;align=center;verticalAlign=top;shape=mxgraph.arrows2.arrow;dy=0.75;dx=13;notch=0;fillColor=#a20025;strokeColor=#6F0000;fontFamily=Helvetica;fontSize=12;fontColor=#ffffff;rotation=-205;" parent="1" vertex="1">
          <mxGeometry x="549.53" y="303.88" width="163.62" height="20" as="geometry" />
        </mxCell>
        <mxCell id="rs3FNmOiAIlKJfeYHdHE-71" value="" style="shape=image;verticalLabelPosition=bottom;labelBackgroundColor=default;verticalAlign=top;aspect=fixed;imageAspect=0;image=data:image/png,iVBORw0KGgoAAAANSUhEUgAAAO0AAAEvCAIAAAAmeNHTAAAgAElEQVR4Aex9eUwUWfc2XZXqLd0sYQ2yBFACCgGXyGJAIIoSGDW4BnWMa9Bx4vhq1HHiGhw1ohJADahEXCKOGkANoEQQgltYNCAQQAhruoFOQ9PpNVXVHy/ne++vpkEEBBSs+0fndtVdn/vUqXPPvfeUiYENLAJTHwGTqd8FtgcsAobpxmOKouiBQJKkXC4vKSm5evXqmYGQkJCQk5PT1tZGkiSMPKQc1a/BYCBJsrq6+tq1a3FxcefPn8/Ly4MS9Hq9TqeD+Lczi9mqby9t2pcwPXms1Wrz8/OjoqIcHBxEIhGO4xwOh8fj2dra+vn5Xbt2TS6XGwwGJldGGDcYDOXl5QsWLBAKhTiOc7ncPXv2kCTZ2tp68+bNqqoq9CB9I3WY7fnGon6G7NONxyAvCwoKfHx8CIKwsrKaP3/+8uXLV65c6e/vb2NjQxCEhYXFhQsXVCoVkysjjKtUqh07duA4LhKJwsLCNm7c+PDhw66urujoaAcHh/z8fJqmfwbe/Gh9nG48piiqtbV1+fLlPB5v4cKF2dnZarWaJElqIJSWlkZGRvL5fHNz85ycnBFyl5lMKpUGBARgGLZ7925E2crKSgcHBwsLi4KCAkj8ow3ztG/PdOOxwWB4+fKlUCjk8XjZ2dlAX4qiYCApiqqqqnJ3d8dxfPfu3Wq1Gq4DI5l8RVoH5EXaQktLi5eXF4fDuXv3LuJxVVXVjBkzLCwsXrx4Aco3KopJIFQL8+KQcWZK9GCg6tAVlJd5C138qSLTjcc0TWdkZGAYZmtrW15eDmoGYiFFUTqd7tChQ3Z2dmvXru3u7obBBrorlcra2to7d+6cOnUqOTm5pKSks7MTeEzTtF6vLysru3//vp2dHYZhly5dKigo+PjxY0VFxc2bNy0tLUUiUXx8/KtXrzo6OkiSbGlpefXqVUtLC0VRdXV1V69ePXHixJUrVz58+KBWqymK0mq1VVVVFy5ciIuLu3PnTmtrK5OgEFepVE1NTc+ePUtOTv77779v375dWlra29sLPTIYDH19fa9fvy4qKmpqakKPK3Sqpqbm1atX7969UygU057T05DHhYWFfD6fx+MlJSX19vbq9XpkoAAp29vbK5VKtVotiDGSJPV6fV1d3eHDh21sbHg8Hn8ggGZSWFio0WgMBkNnZ+esWbNgeofjuEAgEAqFS5cuDQwMFAqFnIHA5XIFAkF6erpGo7l48aKpqen27dv/+ecfR0dHPp9PEASO49bW1klJST09PUlJSba2tjwejxgIPj4+hYWF6LGhabqysnLHjh2mpqY8Hk8oFPL5fBzH+Xz+ihUr3r17B1SWSCRBQUEEQfj6+sIzA5Str68PDAzkcrmbNm2SSCTMJ2Racnq68ZiiqMbGxmXLlmEYZmNjs3379vz8/OrqapVKhVQFEK6I3DRNNzc3h4eH8/l8CwuL6Ojov/76a+fOnb6+vjwez93d/fbt21qttqen59ChQ+vWrROLxSYmJkuXLt25c+f58+fPnDmzZs0aeHLCw8O3bt1aXFys0WjOnz/P5/NdXFxmzZo1e/bsdevWbdu2zdPTkyAIe3v733//3dHR0d/ff9euXStWrLCxscEwrL/Mjo4O4JlGo4mKiiIIwtHRcdu2bXFxccePH1+1apWNjQ2Xy122bJlMJqNpmiTJ7OxsGxsbDodz8uRJ0JQ0Gs2OHTsIgnB1dS0tLUWqzrRkMHRqGvKYJMmioiIfHx8ul0sQhEAgcHd3X7NmzdmzZ8vLy3t7e3U6HdI0DAZD/yv+yJEjGIY5ODjcuHFDqVTqBkJ1dfWmTZswDFuwYEFjYyOwv7a21tXV1cTE5MmTJ1qtFoR9RUWFnZ2dhYXF8+fPdTodSZJarfbixYsCgYDL5f7yyy8NDQ0ajUan0xUVFbm4uPSrJaampgcPHpRKpf16jlqtvnr1KpgFX758Cc9bdna2hYWFvb19VlaWVquFqapSqbx06RKYXJ4/f07TNEVRGo3mjz/+IAjC0tIyPz9fq9VeuXLFzMzMxsbmxo0b0EKkQE9XKk83HoNCTJJkTU3Nrl275s2bZ2ZmRhAEh8PhcrmmpqZ+fn5///13c3Mz0ibr6+t9fX2FQuGBAweYxjiSJCsqKhwcHAQCwfnz54E0DQ0Nbm5uHA4nJyeHJEl4X4O9wsrKqqCgAJ4Q4DGfzzczM3v06BEIToqiFApFREQEl8v18vL6/PkzlElRVHd3t62trVAo/Oeff6ALqampS5cuPXTokFKpBPLRNK3T6Zqamvh8vlAovH//PmJnS0vL8uXLCYIIDw9/9uyZs7MzQRB//PGHQqGY9hrF9JTHTHmj1Wrb29tLSkoOHz68YMGCGTNmCAQCExMTHo8XGBhYUVEBY/zs2TNbW9sZM2aUlpaiUQc66nS6FStWYBi2evVqeDs3NjYCj3Nzc9GTAPYK4DFwS6fTxcfH8/n8mTNnQrEgZZVK5ZYtWzgcTlRUVE9PD3rjKxQKsKLcuXMH2kBRlFwu7+3tBUmsVqslEkltbe3du3cJguDxeLdv30Y8NhgM79+/d3Fx4fP5NjY2OI6HhIRIJBImGtM7Pg3lMYwu+gUbhVwuf/PmTXJy8vz583k8Ho7jK1euBHNEcnIy6MHNzc0w2JAXjBixsbE4jgcEBMC8sLGx0cXFxcTExIjH9vb2lpaWBQUFUALicUBAQH19PZDYYDBoNJqdO3dyOJyNGzdqNBr0JPT09Hh5eeE4fvv2bYqigLsgfW/cuHHkyJGNGzf6+fnZ2dmJRCIMw/p139u3bzOpqdfr//77b5FIxOFw7OzsCgsL4Xlgcp2ZfprFpxuPdTpda2vrp0+f5HI5EFGv1yMrMkVREonk8OHDMPEHNeD8+fM4js+fP7+trQ2NLshjiqIOHDjA5XLnz5/f19dH0/Tnz59BP37+/DlKXFlZCfbjly9fGukVy5cvb29vR2TSaDS7du3CMGzTpk3IYGIwGIDHGIaBlKUoSq1WHz9+3NnZWSwWCwQCc3Nzb2/vVatW7dy5EwwX6enpqFhQOdLT001NTXEct7e3LykpgZagRqLE6Mp0ikw3Hre3t69bt87b2zs+Ph4t4zF5TFFUZWWlpaUll8u9ceMGTdOJiYk8Hm/mzJkNDQ0wtEiSURS1ZcsWgiD8/PzAFID0iry8PMQDxOP8/HwjHkdERCCzF03TarX6S/LY29sbpCwo05cuXYJpYkhISGJiIlhdFApFS0sL7BhJT09nWmAaGxvnz5/P5XLNzc1xHI+Oju7q6gLuMn9Rm6dZZLrxWKPRLF26FMOw8PDwnp4eNMFiUvnTp0+WlpY4jt+5c4ckydzcXPuBUFBQAFM3GON+YaxUKiMjI8HmAARF8jg3NxdJOMRjkMcGg0Gv11++fJnP54+Qx729vT4+PhiGgX7c2toaFBTE4/E2bdrU0tICNhBo2+vXr2HaCg8htKqnpyc2NpbH4/n4+Ny4cQPmpufOndPpdEilQa2dZgyG7kw3HlMUFR8fTxCEUChMTEwEKjNJLJPJzpw5Ay9fWPCTSCTBwcE8Hm/r1q09PT2QGN7Uz58/NzMzEwqFqampwAMkj5k8bmhocHJyMjU1ffr0KVJtQaCCXoEE52B5DMUiHoNe8fHjRycnJy6Xm5ycDFwE+6BWqz116hSsuaSmpiID4rVr1ywsLMRicUZGRr/J5fjx40Kh0MHB4dmzZ+jdwvJ4Kj3ANE1XVVUFBgZiGGZnZ7d9+/bMzMy6urq2trbW1tbi4uLY2FiBQEAQxM6dO2Ghjqbp9PR0kUhka2sbFxfX2dmpUqkUCkVxcXFwcDCGYQsXLoS5P03TTB4jUSeVSt3c3Lhc7unTp5ubm2EREfEYlqlhSsec5zH1497eXm9vb5jn0TRdX18/f/58DMP6V09aW1t1Op1er+/p6Xnw4IGdnZ2JiQmHw7l27RpI6KamppkzZ0KPVCoVSZISiWTJkiUEQQQFBaHJ61QaxdG3dbrJY3inv3r1KjAwEMdxDMPEYrGtre3MmTPt7e0tLCxAuVy7dm1DQwOSVd3d3bt27RIKhSKRyN/ff/Pmzb/88ouzszOO456enk+fPoWUBoOhubl51qxZJiYmsAwB11Uq1aJFi2Du6ODgcOHCBaVSeeHCBZFIFBkZaaQf79q1C8fxjRs3arVaNF49PT2gV4AVQqVSnTt3TigUisXisLCwffv2/ec//4mMjLS2tl60aNGCBQtMTEyOHTsGZwU2bdqE4/js2bOrqqpA6NI0/fz5c0dHRxzHjx49CkZxVNe0jExDHsMruKWl5ejRo35+fjY2NiKRiMfjmZmZOTg4hIWFnT17ViqVMmeBNE3L5fKUlJRFixY5OzuLRKL+d7SHh8emTZsqKiqQekpRVEtLy5IlS9zd3V+9eoUMAhRF5eXlhYeHu7q6Ojg4HD58WKlU3rp1y9fXd9u2bVKpFFLCPO+vv/7y8PA4dOiQXq9HEr2vr2/VqlVz5sx58uQJXOxf/jhx4oSXlxfsQHJ0dOzfL3r69OnW1ta0tLTZs2evXbu2r68vOzt74cKF3t7e6enper0eFlZomtZqtefPn589e3ZgYGBRURFgMi0ZDJ2anjxGglYqlfbvqc/MzHzw4EFWVlZJSYlcLkdCC40rMtm2t7e/fv26nxw5OTmVlZUajQZmimjpTqvV1tfXf/r0CekkQDuSJHt6ekpLS1+/ft3c3AyS8tOnT42NjcBXqIuiqLa2tqqqKolEApVCY0iS/Pz5c21trVKpRFzU6XR1dXV5eXkPHz58/fp1a2urVqulKKqnp+fDhw81NTU6na65ubmysrJ/kxNYo8HICGX29vZWVVV9/Pixu7sbykT9nX6R6cnjMYwToj6KjKGQkWcBYqG9SqPKODktHHmTfoSULI///yggcoAwm4SxmfYychIwRFWwPEZQsJEpjADL4yk8eGzTEQLfjcfo9Q0ReK1Ds9At1MrBV9Ct8Yog48N4FTiqctCGIZRrErqM6mJG0HDAxcF/vy9QzKYy49+fx0y8UBzN2ZltHa/4YIrAUwQjNJhS41XvMOWg9XCoHbFncFOHKWRcbg3ZfTDawKCg9c7Jb9swHfxuPGa2ifmI6/X6jo6OT58+MbeJMROPVxzsx2A1oyiqt7e3ZiDACajxqmWE5YAB+9WrV48ePXr69Gl5eTmsOY8w+zgmQ+wEsyCUTNO0VCqtqalpbm5Gpj2UchxrH3NR35/Hvb29JSUl6Ohy/7YysP8fOXIErXiNO2QkSZaXl1dVVSEe5+fnBwQELF68uKmpacxoji0jTdPd3d27d+92dnbm8/lisTg6OhodAxlbmWPOBeJWqVQWFRWBkRvAv3jxoo+Pz6+//gpbVsZc/gRlnHAeIwpCBP0FGVxTU7N58+aQkBC0SqxWq3///XeCIDZv3ty/BxelH77/wyQbfEun0126dGnu3Lmw+weUiqysrP4DbQ4ODtXV1UPWNbicIZOhiyNMD8f+zp8/LxQK4QhqUFDQ0aNHYckDHjNUplEEqhhcEXOyYZRlJH87OzuPHj3q7Oz8/v17pGsdP36cy+UGBQV1dXUxCxlcO/Pu8O1HKb9aCEr5pcjYeYzMnyNBzSgN/KUoKjs7WywW+/j41NbWwtqpRqO5efPm5s2br127Blu9htTYUH+YOgmUwBxdo3oBVrlc7u/v33+u89q1ayB+KIoqLS2NjY3du3cvOrEMVQxfGmrGkAu/IxkemqYVCkVkZCScrmtsbJTL5bCqB40fphB0C3UTRdB7htlCFEfJkDqOigIHdra2tgKBoKysDIH/5MmTzZs3nzx5crA3DFQIKp8ZYZZsRGtUuFEaZvYRxsfIY2APgmP4dgBX0NIutIyiKL1e/+jRI5FI5OXlVVtbCweQECGYC8JDdga2E0AyBBCaIDLVO2Z2ONQ5f/58giBSUlKgC8xcCFyUC81v0KOLbqEI85ZRmSjNlyI9PT2LFi2C7XIajQYUd1TIl7BFCRBlISVzaL6UF8YC9dSoxrKyMmtr6/7N0yCPoXxUnVEExguGGDqIioW/0Aajlgx58Uv4jOT6GHkM/nJevHjx5MmTioqK3t7eL1UGGymzs7MzMzPr6+uZu2m7u7tv3rwpFos9PT3fvHnT3d0Nk5ve3l6JRIKc7sjlcplMxtylgABSqVTd3d3gXwcugp+elpaW/Pz8J0+eVFZWgmtN1DyVStXY2Ojr60sQRHx8vEwmg0PFwG+ZTAYbJ1B6g8GgVCo/fvyYk5Pz5s0bmUxmNE4Gg0GtVnd1dcHBJ/C9mZub+6XEzJINBkNvb29dXZ2fnx+fz79w4UJ7e7tcLtfr9RqNRiaTwX5oZhaKomQyWXd3N2z7hC1BXV1dCoUCjvh3dnYWFha+evWqu7vbaN0bsUev19fX1z979uzx48cfP35kTt1UKlVBQYGVlRWXy83Pz4eXA0mSarW6s7MTuTJCbAZ83r17l5mZWVpaOnhvHU3TfX19crkcNCW1Wv3x48e8vLzq6mo0/2F2cGzxkfIYSazW1tbTp0/7+vo6Ojra2NiYm5vb29t7eHjExcW1trYy7Udqtfrp06fLly8H3w7m5uYzZsyIiooqKirS6/USiSQsLAz8jxAEMWPGDE9PT3Dec/ToUScnpz/++EOj0bx//97Ly8vNzQ086KBOAjobNmxwdnZOTk5WKpUURbW3t8fHx8+fPx/aZmlpaWdnN3PmzIMHD4KvHYqikpKSnJ2deTweh8OxsrJydXU9e/YsRVEvXrzw9fVduHBhXV0d1AI2hNTU1ICAAEdHR2tra1tbW1dX123bttXU1MBAQspr1665uLicOnXqyZMnYWFhTk5OFhYWdnZ23t7eCQkJ4DCFmR6V39fXt3LlSkdHR4FAAK6G3Nzcli1b1tjYeO3aNXd39/DwcKP3eFdX1+zZs2fNmpWdnQ1l5uXleXp6RkZGlpSUrFu3ztXV1XogzJw5MzY2Fnk4gMR6vb6kpGT9+vWOjo7m5uYWFhYzZswICwt7+PChWq1WKBTbtm2zt7cnCALDMCcnJ09Pz9TUVJIkL1++7OrqGh0djQ4+UhRVX19/5swZT09PW1tb8LYxZ86ckydPAhOgm3BEfObMmbdv305OTvbz83NwcLCysnJyclq0aFFGRgYSbZB+bL8j5TG8OFQq1YoVKwQCgZWVVVhY2JYtW9auXevp6SkQCPh8fmxsbF9fH4grvV6fkpJia2tLEMSsWbOio6M3bdrk4eHB5XJdXFzy8/OlUummTZvmzJkDPlgXLFiwfPny8vJyjUYDR5Q3btyoVColEgk4Bzpw4IDR41tRUWFlZWVpaQlbKHt6enbt2iUQCMRicWBg4JYtWzZu3Ojr6wvnNLdv3w4DcOfOnYCAADiP6ezsHBYWdv36dYqiHj9+bGNjY29vX1NTA1BKpdIdO3YIBAKRSOTj47Nhw4bw8HDwcDV79uwnT54g1RwOmCxatMhmIPj7+wcHB4PxwdLS8vTp08Aho3crCPLffvvNz88P2uPm5hYcHLx169a2tjZwR+Tl5dXT08McWolEYmZmxufzHzx4AAU+fvwY9lh7eHiIxWJvb2/YWSoWizkczs6dO1EJer0+JyfH1dWVy+U6OTlFRkZu27YNfHdYWVndu3ev/5Vy/PjxgICAfiUHw7C5c+dGREQ8fPiQoqiTJ09yudzAwECY5+n1+oaGhpCQEPAKEhQUtHHjxtDQUCsrKx6Pt2TJEpi4g7QGlx3+/v7w2CxatMjPz8/R0ZEgCFtbWzjUyOzjGOIj5TGoQZmZmRYWFjY2Nnfu3On3E6UeCM3NzTt37jQxMZk5c2Z5eTmI5MrKSldXV4IgVqxYUVdXp1QqVSpVVVVVcHAwl8uNjIzs7e1VKBS3b98WCoU+Pj4fPnxQqVRwThh4vGnTJtiLGBcXx+Vy582bJ5VKYZs8aGz/+c9/BAJBYGAgbMV8+fKljY2NmZlZYmJid3e3aiC0tbXt378fXPVUVlaC0tzc3Azehi5cuNDX1weKRGZmprW1tb29fXV1Nejuly5dMjMzAyJKpdK+vj6VSlVYWLhw4UIOhxMWFgYKicFgOH36NPj0nj9/fl5eXk9Pj0KhKC8vX7x4MYZhvr6+cORzMI9JklQqlQ0NDQsXLuz31pycnCyXy/v6+vR6/YULFwQCgbe3N2IherrA41tGRgZcefz4MRwO6H8OU1NTJRJJX19fc3Pzrl27+s/SOjg4FBYWQsqOjg5/f384J/Lu3bu+vj61Wt3c3Lx27VqCIPz9/dvb2zUaTVFRkYWFBY7jxcXFCoUC8Dlx4gRBEMBj0MG2b98ODjru3bvX09MDh2jS0tJg//6BAwfgZC6cccQwTCgUrlu3rqKiQqFQyOXyrKwsOKmwY8eObxfJo+CxRqM5c+bM/PnzDx8+3NfXx1T/S0tLCYKwsbHJysoCQ9KhQ4cIgvDy8vr06RMaP5qmX7165ebmFhoaCrbbhw8fMu0VIKKAxzExMWB3q6mpgVP1Dx48QHt229vbvb29xWJxcnIySLuUlBQfH5/du3cD3eEiRVFlZWVOTk5isTgnJwckaHd39/z583EcT0pKQm3LzMwEeQwNbmpqgpNFv//+Ozq0B55+SkpKbG1tuVxuamoqvHzi4uIwDDMzM3vy5Ak8xlD7nTt3TE1NHRwckM+XISVNV1eXv78/nN+GAmmajo+PFwqFg3nc0dFhamrK5/MzMjIgMfC4373iuXPnQAcFlKqqquzt7fv9fcGJVJqmb968yePxHBwccnNzkQZI03Rtba2Xl9e8efNevHhhMBhKS0utrKz4fD7yINPf7BMnTmAY5u/v39XVRZLk69evXVxc+t9158+fhwk3dA28cgkEAltbW3Cr0NfXB9YYX19fOLECo9D/DYrjx48TBDFv3rxvX3saBY8piurr66upqYEDDmBeUCgUUqn05cuXXC7XwsICwO3u7obzYfv374et6MhdlUqlevnyZV1dHTT94cOHIpHI29sbaZxqtTo2NhbDMPBUQtN0b2/v9u3bwXU26C0UReXk5IhEIhcXF3geDAaDSqWqr69Hh+H0en1fX19nZ2dRUdHMmTOFQiG8iGHRYe7cuSD/ELGMePzx40dTU1OxWIwOUQM14UUZHR2N4/i+ffugF3FxcRwOx8nJSaFQIEMeRVGvX7+2srKysbGBQlBdRpGurq5+b13AY+RhKD4+HvQZI3nc2dmJeAwPYWZmpkgkMjc3B3ed6AH+/Pnz7NmzcRxPTEwEl3O///57v5QNCwuDVSd4DAwGg1arff36dVVVFYinsrIyUA/KyspQU0+cOIHjuJ+fX1dXl16vv3XrVr/LLy8vr7q6OlQOJG5paQHV5eLFiwDX8uXLcRyHNRRUIE3TycnJ8DZGq2Do7mgjI+UxPOJgoOnHPTc3NzEx8dChQytWrPD09LS2tgaBdP/+fZIkGxsb58yZw+fz+33hgI89JLyhfWjWCPL4SzxG3tays7MFAsGsWbPAy69Go/ntt99wHN+7dy9a9wIDXE9Pz8uXL5OTk48ePRodHe3r6wuvSKFQmJaWBrXLZDKwuyUnJyO8Hj16ZG1tbWdnB/I4KyuLz+e7urqCYRvUKuCNTqc7cOAAh8NZtmwZqDTAYx8fHyNbx6dPn2AClJ+fb2Q6QPUaDIYv8XhIeSyRSMRiMchjJo8dHBwqKyuZOEskksWLF5uYmFy+fFmn03V1da1du5bL5cbGxgJo6F0EudDvV3ms1WqPHDnC4/HCw8NBJWAWpVQqQ0JCOBzO4cOHSZLs6+sDHh85cgQNFnQf3ldz5syBVygTk9HGR8pjYJ5Wq01JSfHz87OysgKPvNbW1j4+PiEhITiOm5ubgzxubGyEWc7jx4+ROdPoqYWewzsRrYOAXrF7926Qx8i0JJFIvLy8hEIhaAKNjY0gYh8/fowQVKlUt2/fDgoKAh/G4JTSx8cHZlFCoRA54JHJZEgfRXiBfmxnZ1dZWQnOWfh8vre3N7jXRlM6qO78+fMcDmfBggVSqZSm6TNnznA4nKCgICM9r6amxs7OztLS8sWLF0bdR/V+iccXLlwAHhvZDaVS6ZA8dnR0BD8y0EKKojo6OkJCQkxMTC5dugS7ViIjIwUCwZ9//gmvEUhpZPk2GAxf5bFer9+xYweHw1m5ciV6TaEeqdXqtWvXYhgWGxur0WhUKlVkZCSGYcitLUp5584dMzOz2bNnt7e3o4tji4yCxzqd7ubNm2ZmZlwu193dfdu2bRcvXoQveX369Al4k5GRAaZlcB6cnp7O1MOgz/qBAMz4kn6MeIwEzG+//cbj8SIiIpRKZXp6er9A8vDwgL1EUOw///wDLvpmzZq1cePGv//+GyzW1dXVbm5uIpEIXJwYDAaZTObn54f0Y8j++PFjkMfwzaVbt27BG6Curg4SwC9MAY8fP45hWGhoqBGPjSwqtbW1YHMcfko+pDw+d+4c6BVG79yWlhbwtZyRkQFEBL3CycmpqakJGgmggWUT5DGoZzExMXw+f8+ePUg9g/cMeDJHK+Ff5bFOp4O9A+Hh4UgRQuJcoVCEhoaamJjs27dPr9crFIqoqCgMw06fPg0zP8TUe/fuAY+N1lBRgpFHRspjg8EgkUjmzZuH4/iaNWvq6uoUCgWaVeTk5MAJe3CzJ5PJIiIiCIL4888/0R4JeO77+vri4+PPnj1bW1tL0/Tjx49NTU19fHxAP0bzPAzDfv31V9CtYWwKCwvBnvDhw4ft27dzOJxjx46BwKYoSqVSLVmyBMfx8PBw0PNgUYCiqLdv39rY2AiFwuvXrwMucrl84cKFwGMkaLOzs4HHYK8oLi4Wi8VmZmZFRUVocglT2L6+vg0bNmAYtmbNGtg0A/I4ODjYiMd1dXUgj0GvQCQzGh4mj0Fs0zSdkJAgEAi8vLza2tqAr0CUkpIS8LcJfmMBQ5FI5OzsDDxGT75EIgkNDeVwOJcuXTc6f6cAACAASURBVIJuAvmWL18OSyRIHms0mv7PnRw/fvz169cURZWXl8P7FvzUQGvh0UXzvMTERKFQCE7xmK8amqY7OztdXFxwHD958iTMqaKionAcP3PmjBE+34fHdXV14E4KHTEHWavX68+ePYvjOPK7A3t9cBzvNyB0dnYyly6rq6tBRMHnkrKzs01NTefMmYN4rFKpdu/ejeP45s2bmepmZ2cnvJ7i4uJmzZplbW1dWloK0lGv19fW1np6eorF4osXLyIJAZObtLQ0+NxBYmIiDElPT4+/v3+/IpSQkIBeF1lZWfCcQEvq6urAd/yRI0dATQcqwJdyZs6cyeVyL1y4AHX9/fffHA4nODjYSK9g8hiyI0YyqTwkj2/dumVqaurq6vrx40dEOIqikpOTwVEGsrtlZmaKxWIXFxfkcgUeGOAx6BUw+7x69SpYjgE6kCzgwd/X15fL5aakpFAUVVFRAR98KC0thaeiH6Xjx4+D31GwIb548WLGjBn9a1tgfWc+onfv3jUdCBkZGeA+JiIiAsOwuLg45oAaDIbJ5jHg2NbW5uTkhGHYn3/+ifxNKRSKzMxMmBfz+fxr166BR6m3b9/CMtXRo0f7XVxqBkJDQ8P27dtxHA8ODoY3cklJibm5uZ2dXU5OTnd3t1qtHsxjNIpXr14VCoXOzs5cLnf58uWwhgdyt62tDUxpsbGxyDeFQqEoKCiYPXs2hmH9KzXnzp0D9qjVavABt2vXrs7OTtiUk5mZaWlpaWtrC/vdNBoNWL7s7Oxu3rwpl8vBWN7Q0LBu3Toej+fi4oJWTBCPjeTNt/AYXIiDd/H29nalUimXywsKCsC9rEgkQjzOysoyNTUdhsfwbFMU1dzc7OXlxeVyY2JiWlpaNBqNVquVSqV//fUXj8fz9fUFE3tdXR0M6O3bt7u6usCuD/aKgIAA0HPkcvmOHTvAE+nLly/Bib9GoyksLAwICODxeMuWLYM3iUKhWL58eb+v2+8vj4FJSqVy3bp1OI7b2dkdPHjwwYMHt2/f3rt3r5OTk7OzMyzdxcfHw2K9Vqs9ffq0cCCsWbMmISEhKSkpJCQE1rFzcnJAdH348MHR0bHfX6qrq+uyZcvy8vKUSuWePXsIggDPqky59fnzZ3hh9ftRTUhIABkAbdPpdLGxsf3vUFNT0507dz4YCL///ru7u7uLiwt8U2Pfvn1QWr9MXb16NYfDMTMzCwwMPHfunFqtfvLkCdiP0Zuho6MD3gDm5uZbtmxJSEg4evTo/Pnz+Xy+lZXV5cuXkQnizJkzJiYmw+sVo5XHJElGRERwOBxzc/OlS5cePnx4xYoVjo6O7u7us2bNEggEDx48gO6APHZycmpsbIRa4LpUKg0LC2PKY61Wm5aWZmFhwePxQkNDz507d/Xq1TVr1piZmYlEouvXr8P+lo6OjtDQUHAsFhISArup0DoIeMOgafrdu3deXl4Yhnl6eu7fv//q1auHDh2CxS9HR8fi4mLYEqNQKJYtW8bhcL4/jxGZmpqafv31VwcHBx6PBwZjd3f3gwcPlpaWHjp0yMHBYdeuXaAQw+aEtLS0hQsXAo14PJ6FhcXSpUtfvnyJ3i9qtfrUqVMeHh4gC5OTk/vF3qFDh+zt7WF/BfOF1S/TDx8+bGdnN2/evM+fPyNFEJpXX1+/detWMM6D8cTV1XX79u1VVVV//fWXo6NjdHQ00hCKioqCgoLs7OzEYnFMTExXV1dOTo6np6ePjw+UDIV3dHQcOXJkzpw5lpaWBEH0Ow60srIKDQ3NzMyEtUaoOiEhod/QER0dbSSPm5qavL29PTw8wKMPgpEZAb8qERERDg4OzE8lGAyGT58+bdmyxdnZGRzIuri4rFq1qqioKCYmxtHREe2vyMnJcXNzmz9/PtIroHyJRLJ69WpbW1vQFgBJlUr1+PHjsLAwOzs7+PaUpaWlv7//7du3kaVfrVZnZGTMnj3b0tIS5IJerz937pyjo2NUVFRXVxdSscrKyrZt2+bi4gL49CuW/Qv769atKykpQedZVCrVhg0b+ucJSUlJRnrXo0ePZs2aFRwc/O2u80cxzwN1qru7Oy8v79q1awkJCXfv3i0vL1coFGAzzs3NLSkpQas7sBWrrq4uMzMzeSBkZWU1NDSAmynAGg4UvXnz5v79+w8ePKitrdXr9R8/fszNzQW7AVPA0DTd1taWk5Pz+vVrQATNMMB4LJPJXr58mZqaevny5fT09Hfv3oF9t7m5+fnz5ygXNKx/dTozM/Pu3bsAukQief78eUFBgdHaUv+WkoqKin4L0eXLl5OSkp48edLW1oa2jALdGxoanj17ZrSTCZZm+o+ZPH/+3Mh2ZsRjnU5XUlKSl5dndJSLpmmZTJaXl3d1ILx48aKtrU2tVpeVlT179qyzsxPeRZ2dnXl5eQUFBSAd4CL4vn/79u3Tp0+NTriQJAnf5Lt+/XpSUlJGRkZ9fT16txgMhn4DuVKpLC8vf/To0d27d9++fQszkH7fX2/evEEyCKY9MpmssLAwPT398uXLKSkpBQUFsOCHBk6v15eWlj59+hTtWELdl0qlL168KCoqYpaJ7o4qMjoeoxkbjB+TRlArTO0hDoCCGIB5BsqFZuXoLkQgC7qLykFjA88SJB6+n0hmQBZUNUSgI6hYVNTgHqGUMCNEWZhtQK1C5aAI6hEzI7rLbAwaeHQX5YVb5P8CqhrqBcwhDfMWxAeDicqH2lEWuI7+Qu3wF3UQ/UWJEWLIqgOTb2bhaPSZVUMCuIXAMUow8r+j5jHqHrMOdNEIBeY4MdMz41/qw5euI2INTjD4itGDZ1QvpEdtNroLf1Ea5sCgOEozmIVGfUflDNlIowKZLUHlMC+iQhCxENVQk4zSoyxGBaLrKIIywhX0ix4V9GwYZUFIInbClS/xGFqCngRU7xgio+DxGEpns7AITA4CLI8nB2e2lolFgOXxxOLLlj45CLA8nhyc2VomFgGWxxOLL1v65CDA8nhycGZrmVgEWB5PLL5s6ZODAMvjycGZrWViEWB5PLH4sqVPDgIsjycHZ7aWiUWA5fHE4suWPjkIsDyeHJzZWiYWAZbHE4svW/rkIMDyeHJwZmuZWARYHk8svmzpk4MAy+PJwZmtZWIRYHk8sfiypU8OAiyPJwdntpaJRYDl8cTiy5Y+OQiwPJ4cnNlaJhaBf/EYnRNEZzkntnK2dBaBb0AAvBjDMdV/8RjoK5PJJANBygYWgR8VAabLUJqm/8VjmqYrKyu3bNmyYsWKyMjICDawCPyoCOzbt6+lpQV9+e9fPCZJMi0tDbwwYRjG4XBM2MAi8EMiYGlpCc62QRn+F491Ot3Vq1d5PJ5AIFi5cmUMG1gEfiQENmzYEBMTExoaKhAIzMzM0tPTkWuYf/FYq9UmJyfzeDxwbj6kjxwDG1gEvisCr169cnJyMjU1vXXrFnJW9i8e6/X6pKQkcPXc3NyMHCJ912azlbMI/H8EgJBFRUXwIbm0tDTkXtGYx4mJiQRBODs7GzkhZbFkEfhBECguLnZ0dBSJRF/hMY7jTk5OLI9/kGFjm2GEAPBYLBYDj0FIDyGPWR4bAcf+/aEQYHn8Qw0H25gxIsDyeIzAsdl+KAS+zmOSJBMTE3EcZ+d5P9TIsY1hIsDymIkGG5+qCLA8nqojx7abiQDLYyYabHyqIsDyeKqOHNtuJgIsj5losPGpigDL46k6cmy7mQiwPGaiwcanKgIsj6fqyLHtZiLA8piJBhufqgiwPJ6qI8e2m4kAy2MmGmx8qiLA8niqjhzbbiYCLI+ZaLDxqYoAy+OpOnJsu5kIsDxmosHGpyoCLI+n6six7WYiwPKYiQYbn6oIsDyeqiPHtpuJAMtjJhpsfKoiwPJ4qo4c224mAiyPmWiw8amKAMvjqTpybLuZCLA8ZqLBxqcqAiyPp+rIse1mIsDymIkGG5+qCLA8nqojx7abiQDLYyYabHyqIsDyeKqOHNtuJgIsj5losPGpigDL46k6cmy7mQiwPGaiwcanKgIj4nFSUhL7nZupOsI/R7tZHv8c4zzde8nyeLqP8M/RP5bHP8c4T/dejojH7PdBpjsNpnz/WB5P+SFkO2AwGFgeszSYDgiwPJ4Oo8j2geUxy4HpgADL4+kwimwfWB6zHJgOCLA8ng6jyPaB5fH34QA9EORyeV5e3pUrV/Lz8/v6+iiKMhgMJEnW1dVdv35dIpEYNY6maaMr7F9AgOXx92ECRVEVFRUbNmyws7MTCoUzZszYt29fY2OjXq/v6uratGlTZGRka2srs3EsiZloGMVZHhsBMuF/gY6NjY3Lly8XCoWigcDj8fh8fmRk5NWrV3ft2jV37tzc3FySJFFrKIpieYzQGBxheTwYkwm/otVqL126ZGNjs27dukuXLp0/f37fvn0rV6708fERCoU2NjYpKSkajcZgMID6QQ0EmUz24cOH1tZWvV4PGsiEN3TqVMDyeLLHiqZptVp98+bNS5cuSaVS3UDQaDQymezSpUsODg6nT5/W6XRMplIUpdVqT5486eLisnbt2paWFhDPrIRGg8fyGEExSREQsSRJ6nQ6kiSBrxqN5vnz54sWLfrrr7+6urpAAANNIX1bW9vixYsJgggPD29sbISLLI/RmLE8RlBMXgQRFPja29t77949Pz+/Y8eOyWQydBfRFInw33//vbi4eHCCyWv6j1oTy+PvMzI0TZMDoa+v79q1a/PmzTt27Fh3dzdJkjRNM5UK1D6NRqNSqdAtEMno7k8eYXk8zgRAQhRmaV8qnaIokiTlcnl8fLyfn9+VK1d6e3uBwUY6AxCXWeyXyvyZr7M8Hp/RR+/6ERZH07RcLj9z5oy/v//du3eVSiVIYqCyVqtFRjeNRtPY2FhZWdnR0YGE8Qhr+XmSsTz+1rFmClGQwWBt+JIEhfTd3d2HDx8ODg6+f/++Xq+Hi5C9sbFx//79Hz9+JElSqVReuXJl6dKlfn5+S5cuffHiBSuehxwwlsdDwjLqi3q9vr29vaSk5N69e5cuXUpJScnPz29vb9fr9UZlkSQpkUhOnz69YMGCjIwMjUaDrBYGg0Emkx06dMjV1bWsrEyn0/3zzz+hoaF37949c+aMpaXlqlWrenp6vvSEGFX0U/1leTzG4QYLLkmSCoWiuLj4zz//DAgIcHBwMDMzE4vFQqHQ1tY2ODj4yoDiy7Sj9fT0nD592tbW1s3Nbfv27RcvXnz69GlpaWl5eXl2dvb27dvt7Oz27NnT29vb3NwcFRWVnp6uUCguXLggFAr9/f2lUunwmvcY+zPFs7E8HssAAi91Ol11dfX+/fsdHR35fL6Dg8OSJUv27NkTFxd35MiR0NBQoVBoZWV1+vRprVYL1ZAkefPmTTc3t8DAwC1btvj7+5ubm1tZWbm4uDg7O1tYWPD5fD8/v5aWFpIks7KyVq5c2dbWplAo1qxZg+P4H3/8oVKpxtLi6Z6H5fFYRhgW2PLy8gICAoRCIY7jfn5+2dnZMpmst7dXo9Go1eqGhoZffvkFx3F3d/fq6mpQBpqbm4OCgjZv3lxbW6tWq2tqamJiYgiC4HA4OI7zeLzQ0NCioiKKovR6fVVVVUFBgU6nq6ysnDVrlrW1dU5ODqtUDDlgLI+HhOUrF3t6ehISElxcXDAME4lE69evr62tNVor1uv1KSkpoGbk5eWBoa2goGDfvn1VVVXITtza2nrhwoW1a9f++uuvly9f/vz5s06nY5redDrdqVOnBALBkiVLWlpaWLPxkGPD8nhIWIa+CFYFvV5//fp1JycnDMMIgggODn7//j3sG0bZIOWtW7csLCzMzMwKCgqA5d3d3Z2dnWBzAGaTJKnRaCQSSVdXl0ajGWyOkEqlS5cu5fP5f//9t1KpZOUxApkZYXnMROPrcZIk37175+3tTRAEhmEWFhZpaWlqtRrmXkhYUhQllUq3bt1KEMTs2bOrq6uRtIY06C8IZjR1g+vQDojn5OTY29u7ubkVFhaSJFlVVdXd3c0ako2GiuWxESBf+SuXy/fs2UMQhImJCYZhv/zyC+x2B86BXqvT6RobG//8809ra2uBQHDq1CmtVstUFZh1DCNfKYpSqVRbtmzhcrkrV66USqU9PT1r1qzJzc0dJhez8J8nzvJ4dGP97t07Dw8PzkDAcfzUqVMwt5PJZK2trZ8+fSouLr5+/frq1astBsLq1atbW1sR7ZiRIeMGg4EpkqVSqa+vr0AguHjxolqtTk1NXblyZUNDA1rtG13rp2/qkfKYIAgnJ6fm5ubpC8XXe6bT6c6dOycUCk0GAoZhAQEB0dHRK1euXLZsWUBAgIeHh7W1tUgksre3DwsLS0pKkkgkSBIjrQNqQjz+UsU0Tbe3ty9cuFAoFKampmZnZwcEBDx48IC5bvKlvD/bdZbHoxhxmUwGdlxsIBAEYW9v7+rqOmvWLC8vL19f38DAwJiYmOPHj2dlZTU0NMD2NJCviM2ovq/ymKIojUZz/fr1uXPnLlq0KDo6OjExUaFQfDUjquLniXydx3q9PikpCcdxZ2fnn1weNzQ0eHt7czgcExMTHMejoqLevHlTVlb28ePH2trahoYGqVSqVCrVajVJknD6CK3kjYHHYAPRaDR1dXUlJSW1tbVoPYWlstEjyvLYCJAv/qVpuqKiwtzcHJQK0FmRBc1I6CLWDo6gCkbIRUjG/EUlsBGEwNd5TJIk6/8Y7GKvX78WCoUgj0UiUW5uLsJxmAjiK9rUNkxi9tbYEGB5PArcysrKhEIhhmEcDsfGxqauru6rmY24izj91YxsglEhwPJ4pHDRNF1bW+vq6srhcDAMc3V1bWpqGiYzaBQkSfb29rJmsmGAGpdbLI9HAWNXV9f69etBr3Bxcamvrx8mM0VROp0uJycnJCQkLy+PpfIwWH37LZbHo8CQoqi0tDQzMzMMw8zMzJ4/f87MDAIYLVArFIq7d+/OmzfPysoqLS0Ndv8w07PxcUSA5fFIwQTVFva2YxiG4/iaNWvgcCgwGK3DabXaioqKffv2OTk5OTs7nzlzRiqVIsPFSOtj040GAZbHo0HLYNDpdFlZWfb29hiGWVlZnT9/vqurC2Qt+ASqrq6+ePGil5cXn8/39fW9deuWWq1mSTw6lEefmuXxSDEDywNFUUqlMjEx0dnZmcPhiMXixYsX7969+48//ujfwePn52dvby8UCs3MzGJjYysrKzUaDdMdG2uvGCnco0zH8niUgA0kV6vV+fn5GzZs8PDwsLGxsbS0tLa2hjXqkJCQQ4cOFRcXK5VKOGSKhDFExlIfm+drCLA8/hpCQ92HZefOzs73799nZmampaXdu3cvMzOzpKSkpaUFFAnIB1KcSeWhymOvfSsCLI+/CUHYPgEb0NDSNCpxMIlZvQKBM74RlsffhCdSFVAE2d1QuUxhzPIYwTK+EZbH44snW9r3QYDl8ffBna11fBFgeTy+eLKlfR8EWB5/H9zZWscXAZbH44snW9r3QYDl8ffBna11fBFgeTy+eLKlfR8EWB5/H9zZWscXAZbH44snW9r3QYDl8ffBna11fBFgeTy+eLKlfR8EWB5/H9zZWscXgRHxOCkpiSAI1p/Q+ELPlmaEAGyiYu64MkowzN/J5jG74WuYwfjJb30LNyacx9/SuJ98XH+e7jNJwoyPHIHJ4DFFUb29vTk5Offu3bt//37Gv8N9Rrj3gwVG0+7/YE2bbs0BqEtKSsbmi/HrPNbr9eDfbWz+j+Hxqqmp8ff3FwwEoVAoGhSEbPiJEUDEWLNmTXd3N/rKhGHE4es8JknyG+d5FEVVVVXNnz+fy+USXwg4G356BLhcbnR0tEwmGzF7/y/h0DyurKwEOUrT9DfKYzjBJpFILl26tHfv3t++EPaw4adHYO/evdevX+/r6xvDV3wG87ijo8MkKCioqakJLCDfIo+Rzg6u1RUKhVqtViqVqkFByYafGIG+vj5ghNHXtv9P3n4tNpjHHz58MCEIIjo6Gr5tqNfrExIScBx3dHRE5EYE/Vr57H0WgclAYDCPP378+F+P61wud/fu3UqlEvx4w3duWB5PxpiwdYwegaF5zOFwCIL49ddfFQoFUx7/5N8HGT28bI5JQmBoHhME8csvv3z8+FGv1zPlMcvjSRoWtppRIjA0j4ODg2tra8HBnk6nA/14bPbjUbaHTc4iMBYEgMcikSgtLQ1cpv9XPwa7G9grwO4G+4RaWlrGUgmbh0VgghEAHpuamgKPKYr6r90NjL6wrMLkMatXTPBwsMWPEYHBPKYoygQc7w2WxyyPxwgzm22CERisV9A0bQIMRusgiYmJP+f+Y2QmRxEYDqO/Q47RSNIMmZG9OAYEgMdisTgtLQ3cThsMhn/xGOkVP9s8j6ZpnU6nVqs1/wtarVaj0eh0OrhgtHxKkqROp9P+L6CURsnGMEhslq8iMDSPmdm+ZV2aWc6Uizc3N69bt87Hx2fhwoUBAQGBgYEBAQFBQUGLFy8ODAxcsmRJRUUFdAqmE0+fPl2+fPnixYvDwsJCQ0OXLFmyeCDcv3+flc0TPfoj4jHoFT+JPEaca2pq2rZt29KlS318fPh8PnzG1MLCIjAwMCwsbOPGjc3NzZAY/HVnZmZ6e3vjOI5hmEAgsLOzmzt37ooVK/Lz80FDm+ix/JnLZ3k89OgDNbu6ulpaWrKyshwcHDAM4/F4e/bsqaur6+jo6OnpQYyHxP0bZ0+cOAETiX379mVlZZWVlbW1taGN4UPXxF4dDwQQj2/evIk+uWnCLPnnXM9DEpSm6WfPngkEAgzD7OzscnJyEExMlBQKxc2bN+fNm7d+/fri4mLmt3gR3Znp2fj4IsDyeGg8EY9Jkrx48SJBEBwOx9fXt6OjA/ESIhRFdXZ2xsXFeXt779u3r6Ojg6IokiRRCUNXwF4dVwRYHhvDacQ/rVa7ceNG+IDpxo0b1Wo1ZAAS6/X68vLyzZs3+/j4XL9+XaFQIHIzkxnXwf4fbwRGxOOkpCQcxydinse0SSE5N959/L/yUBUo8n/3vhD7/PnzvHnzYANgUlISU6nQaDRPnjxZtmxZREREXl4e+m7pF0piL08gAojHN27c+D/7MbNCsLtNEI+ZFY2cW8xco4obydqv5qVp+unTp1ZWViYmJra2tvn5+ejB6+3tTU5OnjNnzq5du+rr6+H6aMv/agPYBCNE4Hvy2Ii4Rn9H2IExJBt5RVqtNi4uDoxuCxcurK+vh7wdHR1Hjx51dHQ8ceJEe3s7KpDl8RiGY1yyfDce63Q6hULR878gHwgyRuhmhC5G6PyGAMX09vYisTo8iJ2dnatWrcJxnM/nb926VSaTqdXqoqKiZcuWCYVCT0/P1tZWROLBX84bvnD27jgi8HUeo/PS4+vf7eXLl+sHwtqBEP3vsGIg/PLLL1GMEBkZGTEQli1bFh4evux/Yfny5REREcv/F+Dy8uXLIRlE4GJ4eHhERMThw4dlMhnwj8lCI1hpmq6qqvL09ORwOObm5omJid3d3ZmZmYGBgTiOczgcS0vLR48e6XS6n5PBTOiYcSMYJ+fv9+ExTdPJyckEQQAhwBpAEISZmZn5/4LFQLD8X7CysrK2toaPkkMyU1NTkUgkFAr5fD6Px8MGAofD+e/pwn8HzkBA19zc3MrLy5kzti9h/fDhQ2traxMTE2dn53/++Sc+Pt7X1zcyMtLGxobD4WAYBke/QJ347mP5pV6M73XUTRQZ3/LHVtp343FdXd3SpUtxRrC3t09NTX379u17RigtLS37d3j//v2bN2/evn1bUlJSXFxcVFRUWFhYUFDw4sWLvLy8mzdv/vXXX5s2bfLz83N0dBQKhUA4YDmsLQsEgnPnzoEcHdJ1DYyQTqc7evQorIA4OjouXrzYx8fn2rVrjY2NW7Zs4fF4HA7H0dHx3bt3Y4N+KuYCZAZPA2BF8zsy+/vw2GAwUBT18uVLd3d3DofD5XIxDBOJRDt37uzo6GDufkaijhkB8lH/C3AL/un1eq1Wq1ar5XJ5RUVFamrq2rVrHR0d0QYJExMTHMdDQ0Pb29uBSUOiT9N0b2/vihUr0H4Jf3//7OxstVqt1+vv379vZ2dHEIRQKDx79ixY3KYiL0fVZpqmSZKUyWS1tbX19fUqlQrRWqfT1dXVSSSSkbzlRlXpCBN/nccTt99NpVIlJCSIxWIQkxiGmZubM2kxJMOYyiiT3Mw4s/MKhaKwsHD//v0zZ85Euoe1tfXLly+Hme3RNF1XV+fp6YlhGEEQq1atKisr0+l0UEtHR8eSJUsIgjAxMQkJCWlsbGTWOC3j4EknKytr3bp1s2bNmjNnTlxcXHt7O4iPwsLC0NDQu3fvarXaIUfN6KLR329H7Os81uv1sA4yvvM8aHp3d/f69esRvTgczowZM168eAGMGb57I8QCmKdUKl+9erVmzRqkSe/bt0+r1YLsZ1aEnofs7GwLCwsOh2NlZZWbm0tRFKpRp9MlJSWBamFhYXH79m3mXWZp0yau0+kyMjKcnZ1hiZ7D4QiFwujo6GfPnuXm5i5btiwmJoa5aD98xxGSwycb+d0R8fhb/G0O3xSSJEtLSwMCAoDKJib/dWW0ZMmSyspKeNCH1F+HL3PIuxRF6fX65ubm33//XSQScTgcLy+vxsbGL4lksBxzOBwcx93d3VtbW6FYYLnBYGhoaPD19QVpvWbNGrlcPu5jM2RHvtfF6urq4OBgOzu7lStXbtmyJSoqyt3d3crKymEgBAcHl5aWoiEb3Ei9Xo/0kPEaU2YtX+exTqebOB4bDAaSJB88eGBrawsTMqDOzp07JRIJs6HfGEdStqWlZc+ePXw+39zcPCMjYzCP4UpXV9eGDRvA0BEdHY2WOtEYqNXqP//8E6apTk5OxcXF05vHjx49WrRo0aNHj6RSqVwul0gkdXV19+/fX7hwobe3d1ZWlkajYap8zPGSYLTq9gAAGFNJREFUSqXx8fE7d+6srq4GeMcdq6/zeILsx9BPmOdqNJpTp06ZmpqComxiYmJhYXHp0iWVSsWE4xvjQGWKohobG3/55Rccx2NiYhQKhVGxAHF5efns2bPhoUpISDBKAzvaysrKnJyc4B0SGxvb19cH3TFKPA3+0jTd1dXV0NCg1+thtkfTdGdn57Fjx4KDgx89eoRk7WCC0jSdkpIiFosJgnj48OFgwTEu+PwQPDYYDK2tratXrwblFaTgvHnzSkpKALhx6SpSCbRa7fPnz52cnFxdXUtLSwF6dBdsKXfu3LG2tobFjoKCAnSXmVgmk23atAn0RVdX14qKCmR+mqDRGhccxlwI9A6UB4lE8ueffy5atOj27dvIXDOYxFBXTk5OUFDQypUrGxoaAMkvpRxz274zj1G7KYoqLCycO3curIyAMW7VqlW1tbXj2GcEolKp3Lt3r6Wl5blz59CjgvYN9/X1/ec//4FpXEBAQF1dHTIFIr2CJEm1Wp2QkCAUCjEM4/P5x44dU6lUMHdE/ZoeETQEAGBjY+PBgwfDw8Pv3buHXmgojVGXKYpSqVR1dXXIaQQSCkYpv+XvD8RjlUqVlJRkY2MDy3vg8/PQoUNjc1A+JCiANfzW1tamp6e/ePECaWwSieTRo0dXrlw5ceKEp6cnQRAYhnl6ev7999+pqal5eXlKpRKKpWm6trY2OTk5IiKCz+ebmJhwOBx7e/t9+/alpKTAJHXIBkzRi0hfoiiqpaVlx44doaGhhYWFSBKPpF9MWTCS9KNK86PwGJ5RqVS6e/duWBaBBQsbG5sbN24Mto6NqpMjSUxRVGpqqoeHh4ODg42Njbm5uampqVgsNjU1tbGxsbW1XbduHbJaqNXqM2fOzJgxo1+PNzU1NRsI5ubmNjY2rq6uSUlJ4BrvSyJqJO2Z0DToeUbP8PDVgU6s1+sbGxu3bt0aFRX1/Plz8LkNL6jBZke4otVq5XK5Wq1GitYwNo3h2zD83R+LxyRJVldX+/v74zhuYmICgtnPz+/t27cTvVAEIvbBgwcZGRn3/xcyMjLu3bsHV4qLi9GJUb1e//79+1u3bt2/fx+ywDeobt++ff/+/bq6uh+WwUZsQIQ2um70F6yWFRUVW7duXb169evXr9HuKIPBoFar8/Pzy8rKmLl0Ol1paem5c+d27ty5f//+zMxMmAdPhFJhMBh+LB7DHCsrK8vDwwMWhEFRjomJAXKgx5oJ2bjEB4/oaLk4uIRxadjEFaLT6To7O2tra9+/f19aWlpTU9Pd3a3VakFkAuHglyTJT58+/frrr6tWraqsrGRqCBRFlZaWBgYGnjt3DjWVJMk3b95ER0f/9ttvCQkJbm5uM2fONFpLQonHJfLD8dhgMKhUqvj4eEtLSzDDcTgcMzOzU6dOqVSqiZbKTEyH4TFTqAyTjFnaDxVXq9UVFRVnzpyJiory8vJycXFxc3ObM2fOxo0b79+/39fXh87JQk+bm5vXrl07Y8aMkydPvn37tt9YodPpSJLUaDSFhYUrV650dHTMzc2FPtI03dHRsW7dupMnT0qlUpVKFRQUJBKJzp49C8VOBBRf5zGc+5+Ec00IBYPBIJFItm7dChsYwAxna2v79OnTKSfzJmLMxlwmTdMqlerdu3fbt293cXHh8Xg2Njbu7u4BAQHBwcHu7u5CodDKyurUqVNIBwAHrNu3b7ewsHBxcXEdCPPmzYuMjNy8efPixYvt7e2trKyOHz+ODBdarfbKlSsrV65sbW2lKEoqlXp4eIjF4osXL07c6/SH4zEMEkVRJSUl8+bNQyLZxMQkLCzs48ePU1H+jZl545URDA5SqTQhIcHHx4fH41lYWKxevfr+/fulpaVSqbSnp6esrGzTpk1isdjKyurZs2egXQAp3dzcjh49WlhYmJOTs2rVKpFIBAvyBEHY2Njs3Lnz8+fP0FSapvv6+i5duvTkyRNQP0pLS62srGbMmPHs2bOJG7sflMc0TWu12vT09BkzZiCLMkEQGzduREc5xmuMp3E5iDcURTU1NcXGxpqbm4NDmdOnT7e3t8OLHsSkTqcrKysD116HDh0CjaK+vn7FihV//fVXT08PmCBaWlp+++03Dw8PZ2fnwMDAy5cv959WRPYZeGDAQEGSpFarvXXrFpfL9fPzQ1yfCMB/OB4zVc/e3t6TJ0+amZlhGAY2Wisrq8uXL4PdAA3SROAyzcoEPU0sFuM4LhAITpw40dXVhazCaF9Ea2treHg4hmH79+8Hcvf29r579w6+lYtMbN3d3WVlZe/evWtpaTFy6AFp0K9Codi+fTtBEJs2bUKKx0Rg+3UeT+j+iuG7RNO0VCpFGzthJ4OnpyfMfIfPy95FCKjV6nPnzonFYjDJh4SENDU1IVUVBAfI2oKCAnd3d4Igbty4AWICriORAYmNflFFzAgS3h4eHnw+//z586hGZrLxiv+4PAawdDpdUVHRnDlzkHaBYVhUVBTMIcYLhelaDqxfFBUVubu7A4CwW5ppNwDCURRVX1+/fv16Ho/n6elZU1PzJR7DFkUwHDEJbYQhqNd5eXlmZmb29vZPnjz5SXkMuNA0rdFobty4YWdnBwdFYQf3wYMH0R4rIwTZv0wE+hfhNm/eDFoZh8MJCQkBZUA9EBQKhVQqLSsrS0lJCQwM5HK5jo6O//zzDyL6mOUxfJn8/PnzIpFo9uzZdXV1zFaNe/xHl8fQ4X6/E3v27OHxeLDIx+FwnJycYEY87ohMpwIpiqqrq3N2dkZnxRcsWHDy5Mljx44dPHgwNjY2JiZm6dKls2bNMjc3F4vFwcHBaWlpSqUSBC0sS6E4UqOZYhipHINxk8vlGzZswDBsw4YNSqXyO8vjSbYfD4YD4Pv06dOCBQtgwodhmJWVVXp6+jAgDlnOuFychEqhCkSXMTeboqirV6+KRCLgMRjLuFwujuM8Ho/L5VpaWjo7O3t6ekZHR6enpzc2NqLdf2OuFOHT1NS0YMGC/r2vSUlJE0riEa1L/wg8Bp0sNzfXzc0NNkkeOHCgt7d3zFj/JBnVanVMTAwsJJmYmNjZ2fXvRz179uzVq1fT09MfPXr06tWr6urqrq4urVYL365FLBwtREYZaZrOzc21s7MzMzODndlGCUZb/vDpv65X/Ag8Bi2trKzM19cXx/H169fDF9uH79u33wXLFMhF2J08Qdu1BjcV9EswxAIDxsCDnp6e5cuXw0vMxMQkKCgIKEsOBOY+CriC1OLB7RnJFfgyELJJX7hwgcvl+vj4SKXSMTR+JDWiNFOGx21tbRs2bBAKhSEhIXCkcaKhAYzgEerr63vx4sX58+dzc3PhIBpCcCIiNE3L5fKbN2+ePHmyq6trzFXI5fKgoCBkfd+yZQvzoCGy8qLHFV0ZQ416vb6kpOSPP/5ISkrSaDQymSwmJobL5e7Zs8dosjiGwr+a5es8/o72Y2g9OHw/cOAAn8/38vIqKipCRp+vdm9cElAUlZWV5enpyefzfXx8qqqqxqVYZiEw0lqtVqlUdnd3P378eMOGDZaWloGBgW1tbcyUo4oDj5Gd5/jx41DRkIUw53NDJhj+olQqXbduHY/HmzdvXk1Nzf379+3t7RcsWABC5xsl/fBVj0g//r48piiqt7f37Nmztra2/e4/Hj58+O0Tka+CYpRAp9PFxcWJRCIul+vv719fX2+U4Nv/UhSVl5e3bdu2ZcuWeXt7W1hYwGwsICDgW86NKxSKpUuXImNFQkKCkTwesuXoaBasNg+ZZvBFiUQSFRWF43hERERcXBxsP2LuqZjQ9+cPLY8pitJqtQ8ePHBzc7O0tLx27RpaBR2M4wRdAbU4Jydn6dKlS5YsSUtLG99T3NBsiqKSk5M9PDz8/PxWrFixefNmU1NTHMcXLVqE/HeNoYMkSf72229wKKHfFfm1a9e+ajfo7u6GXT6wM3Pklep0ugcPHixZsiQsLCwiImL//v1lZWWTtoPgx+UxbBV6+vTp7Nmz+w/tnT59ure3d0Kf6cFjhl61Op1OIpF0dXVN0AZoiqK6urpqa2vb2tqUSmVxcbGtrS2GYQEBAUivGFvfi4uLZ8yYASaLw4cPg98qZNEDzRgmfHD27tixY6ampuvXr5fL5QDIyOslSVIqlTY1NUkkkkmYRTDH6+s8/i72CgD6zZs3/v7+pqamu3fvBo/ZI8eU2ckxx6E6VKnR3zEX+9WMr1+/Bsc0/v7+6FDgV3MNTgAbjrdu3QrumoKCgpqbmxFrIT28cHQ6XXl5+aZNmywtLT08PHJyckaigQyu8Xtd+UF5TFFUTU1NdHS0UChcsWJFbW3tuM/tEDsHQ8+8BS9i+GVeH5xrHK+MI49pmi4pKZk9ezaGYUKhEM5ogKlYr9frdLqenp7y8vJz587NnTvXwsJi2bJlBQUFyKnuOHZqQov6EXlM03RbW9vu3btFItHChQvfvn07vgSClylJksNb/vuVy+7u7g8fPrx58wYWCyZNRI0jjw0Gg0ajSU9Pd3V1JQjCwsJi27ZtqampDx48uHnz5pkzZ2JjY729vfl8vqur68GDB+vq6iatm+PI7B+Ox+B4+OzZsxYWFl5eXjk5OWhqMl5shjdpc3MzfDp3yGL1en1ZWdnevXtDQ0PnzZsXGBh47NixyVl8MRgM48VjIApN00qlMiMjIyoqys7ODnzb9e/kNjMzMzU1tbW1Xbhw4Z49e54+fSqTySbaQDaO3GUW9f15bEQjnU535coVZ2dnV1fX9PT0iVh8BjPIwYMH3dzc4uPjB0/dSJIsLi5etWpVTExMWlpaSkqKi4uLhYVFXFwccmir0+n6+vpUKpWSEVRfCIwkSpRkcL1oYN68eQP7+/z8/L5xnofK1Gg0jY2Nubm5SUlJhw4dOnDgwIkTJxITEzMzM2tqanp6etCZDpRlCkW+P48RWLAS++zZMycnJ0tLy7i4OPg8qBHRUfoxRKAoiqIqKirc3d0dHBxevnw5uHypVNp/wD06OrqpqYkkyaamJj8/PwzDIiMjwfAHzoD37Nmze2QhdlDYu3dvZmbmlyb1E8FjWKuDSR48S2AnHtz9MQD73bP8EDwGKGmafvPmTUBAAHxgQSqVjvvcDsZSLpf/8ccfPB5v6dKlXV1dSG+BwdBqtZcvX/bx8Xn27BmclKypqZk1a5aJicmSJUuAx0qlMj4+Pjg4OGj0YfHixcHBwSEhIYmJiZPMY8Q2tLMCXZnqbP4heAz7XD99+hQRESEQCLZs2dLY2DgRJIbVwZSUFCsrKy6Xe+bMGaQnoBFtbGwMDAw8ffp0X18f8L6goAC+l7Nv3z70aQW1Wi2Tybq7uxmf/JPJRxB6B0JPTw/yToSqRpEJksdQPtg00Z4H+IuqnqKRr/OYoijw4+3o6IhcJo5vb2mabm9v//XXXy0sLEJDQz99+gSzjXEXEmq1OjU1debMmTiO29nZvXnzZnAVXV1dqampnz9/Rl5zrly5QhAEl8sFT3PM3eVAgiF/h4EIOGT0HmCmf/v2rZ2dHYfDGUf9mFn+9It/nccTug4CJrDe3t6jR4+KxeIFCxa8efNmmAEewwAgeSOTyZKSkpycnMCJfHh4eE9Pz2AeIz/VwDadTrdlyxYMw5ycnAoKCsbQgDFkYXk8WtBGymOCICbiOzfg5S4lJcXc3NzJyenBgwfDvG1H1TcgKBiJu7u7i4qKdu7c2e8sB1ZoCYJISkoaTGJmFXC3ubl54cKFGIaFhoZO2neZWB4zB2Ik8a/zWK/XJyQkjC+PkYxUq9W3bt1ydna2tLRMTk5Wq9VDWqOYL+4v9QrmLvALy1TNzc3v37+/cuXK2rVrHRwc4MAwnPBzcnJC328chs00TT979gxsrrt370ZbDkjy/7V3fi9RrGEc3x/sD8W1LgyH3XGXqVxWSyQCL4ogAu1mjaUDIQsZBUF/QBARURdBF97pXbSBx6CbhS4rI3eKsg5HLM7qHjJbxlPRhYKOkpas66l9jm+P7swOe3LYd/R5LobHd95995nv89lx5p133jf34cOH0dFRmOHvTy37Q8dGRkZgccsSA4CIY70s65Ubc2zedUUul3v+/Hlra6vX6+3q6hoZGckWTFGUbDarFBns/We9KYoyOTk5MTHx4sWLJ0+eJJPJW7duXb9+/fTp00ePHoU3KGFGbjZ80el0tre3T09Pw8+jxGXM0tLSjRs33G73zp07+/r6YJAN3CxeuXLlwIEDzf/L9hXs5s2bev0VwLHD4Whra/v06ZNe8qicKVAxjldWVtLp9PHjx2F+WL/fHw6HI5EIbCNF1rRmAAFs9+/f39zc3NjYuHv3blh6uqamBqiFuZPZwjns3R6YNqCnp4f1PDAtNjj5fH56ejoWi7lcLkmSBgcH2dBnmP94YGDg9/Ktv2B3795Np9PwE4J/CLCFEswxew6yITz6EytQMY5nZmbOnj3LZldhq0Cz1cdgiBZs8erncIELWzbXN67GptBjNWH2BoayJEmvXr3CDGFFwIdT9evXrxsbG+12+6FDhyYnJ/GZGy5gNox7xNc2hr7m9Qw0+PLly/r6epvN1tbWNjU1pVmzOObtXFIxjh8/fnzw4EGYilSSpGAwKElSKBRiTsN6E0XR7/fXrze/3y8WTCgYVAgEAqIoBoPBQMFEUYSWgsFgqGDxeJwNJNBEhF1v3Lt3r66uzul0dnd3sznOzMAFnmXOrVkymRQEweFwhMPh4eFhmA9TVVXNmwcz4rFcm8Ycm/FeUz6fn52dff/+/bt3796+fft3wcDJrNkYsr/KtDSysbGxdDoNjUHbU1NTeEiXHspfv369dOmS1+utrq7u6+srfmKyicnO5/OyLHd0dLS3tx87dqyhocFVMK/Xu2fPnsOHD3d0dHR3d5u3juImHktFmqoMx3ComgAZ7jJJpuJgZmZmotGoy+USBCGVSsFJ2rxvHxwcjEajnZ2d0Wj05MmTv61ZLBY7ceLE92mxz507NzExURynSSFZq9nKcFyCCdjFQ7bGx8f37t3rcDhaWlpYp0GJyH8l8TDzw9zcnFqwhYWF+TVTVXV+fl5V1dnZWVP/J/xK/BX/bGU4hnELbFtZFdhT4oWFBVVV4WYul8slk0mfz2e328+cOcPu8Ez6gZX49eJvhFArKxef327MsXn9x5woAgyNjo6eP38+Ho/DKrxfvny5ePGiw+Gora0dGBjAMHESNoWBFSCOV+Gms6ury1Owy5cvLy8vP3jwIBKJeDyeWCz28eNH4hhDw6FPHP/gWFGUpqYmu93u8/l6e3ufPn165MiRqqqqzs5O9rSCw+RRSEwB4vgHx4uLixcuXHC73YIgxGKxcDgsCEI8Hoc1D2EEHJOMHA4VMObYjP5j3oRYWVn5PrT62rVrp06d+n5Xd/Xq1fv373/+/Bk/k+MtZooHK0Ac/6cGTF8EL4QuLy8vLS1B50CJngSsI/mVVYA4/qk/Q1bT+VmPPP4UII5/5AS6I4q3/OWLItJWgDjW1oVKraUAcWytfFG02goQx9q6UKm1FCCOrZUvilZbAWOOt/z4Cm1hqNRSChDHlkoXBaujAHGsIwwVW0oB4thS6aJgdRQw5ng7jK/QEYeKLaMAcWyZVFGgJRQgjkuIQ7ssowBxbJlUUaAlFDDmmPqPS8hHuzhRgHGcSCTYbDU2HBxxjNUgn08FiGM+80JRlacAcVyeXlSbTwWMOab+Yz4zR1FhBRjHt2/fZpP3rbs+Jo6xXuTzqQBxzGdeKKryFCCOy9OLavOpgDHH1O/GZ+YoKqwAcYzVIN+qChDHVs0cxY0VII6xGuRbVQHi2KqZo7ixAsQxVoN8qypAHFs1cxQ3VoA4xmqQb1UFjDmm59JWze12ips43k7Z3rrHShxv3dxupyMjjrdTtrfusRpzzMZXSJKUzWZpBa6tC4OFj+zZs2eiKPp8vkQiwRbtXDf+GHOsKArjGC8+gAXA5Xo+ro99XF+vHNcp18dtkr+VFJBlmXFc6j1Tt9sdCoWA43w+v2ENmHJ50lsHCbeD6+DyzfL1sojb16uDy8utjz+L/c1qR69NM9rH34X9cr/rV+rDiVWW5UAgUFtbC+9LQ6HG+djj8QSDwUePHmUymfEiyyAr2slRAQpT4yg4CpRCKUeBTCaTSCR27dq1Y8eOO3fu5HI5DY6h/9jtdjudzmoyUoA/BWpqaqqqqmAx8P7+ft3riocPH9bV1dlsNjsyGxkpwIcCQKXNZguFQrIsa9/nra6uLi4uDg8PDw0NychSZKQAHwoMFSyVSr158+bbt29sIbl118esFF/Ik08KcKgAOxNDbBs55jBiCokUMFTgX5aHt6hGLn64AAAAAElFTkSuQmCC;" parent="1" vertex="1">
          <mxGeometry x="613" y="194.91" width="47" height="60.09" as="geometry" />
        </mxCell>
        <mxCell id="rs3FNmOiAIlKJfeYHdHE-83" value="&lt;div style=&quot;text-align: left;&quot;&gt;&lt;font face=&quot;-apple-system, system-ui, BlinkMacSystemFont, Segoe UI, Roboto, Oxygen-Sans, Ubuntu, Cantarell, Helvetica Neue, sans-serif&quot;&gt;&lt;span style=&quot;background-color: rgb(247, 247, 247);&quot;&gt;&lt;b&gt;a&lt;sup&gt;T&lt;/sup&gt;&lt;sub&gt;&amp;nbsp;of Head 1&lt;/sub&gt;&lt;sup&gt;&amp;nbsp;&lt;/sup&gt;&lt;/b&gt;&lt;/span&gt;&lt;/font&gt;&lt;/div&gt;" style="rounded=0;whiteSpace=wrap;html=1;" parent="1" vertex="1">
          <mxGeometry x="417.5" y="75" width="140" height="20" as="geometry" />
        </mxCell>
        <mxCell id="rs3FNmOiAIlKJfeYHdHE-84" value="" style="endArrow=classic;startArrow=classic;html=1;rounded=0;exitX=1;exitY=1;exitDx=0;exitDy=0;" parent="1" edge="1">
          <mxGeometry width="50" height="50" relative="1" as="geometry">
            <mxPoint x="419.5" y="65" as="sourcePoint" />
            <mxPoint x="559.5" y="65" as="targetPoint" />
          </mxGeometry>
        </mxCell>
        <mxCell id="rs3FNmOiAIlKJfeYHdHE-85" value="&lt;b&gt;2F&lt;/b&gt;" style="text;html=1;align=center;verticalAlign=middle;whiteSpace=wrap;rounded=0;" parent="1" vertex="1">
          <mxGeometry x="472.5" y="51" width="30" height="20" as="geometry" />
        </mxCell>
        <mxCell id="rs3FNmOiAIlKJfeYHdHE-86" value="&lt;div style=&quot;text-align: left;&quot;&gt;&lt;font face=&quot;-apple-system, system-ui, BlinkMacSystemFont, Segoe UI, Roboto, Oxygen-Sans, Ubuntu, Cantarell, Helvetica Neue, sans-serif&quot;&gt;&lt;span style=&quot;background-color: rgb(247, 247, 247);&quot;&gt;&lt;b&gt;H&lt;sub&gt;i&lt;/sub&gt;&lt;/b&gt;&lt;/span&gt;&lt;/font&gt;&lt;/div&gt;" style="rounded=0;whiteSpace=wrap;html=1;" parent="1" vertex="1">
          <mxGeometry x="561" y="100" width="30" height="50" as="geometry" />
        </mxCell>
        <mxCell id="rs3FNmOiAIlKJfeYHdHE-87" value="&lt;div style=&quot;text-align: left;&quot;&gt;&lt;font face=&quot;-apple-system, system-ui, BlinkMacSystemFont, Segoe UI, Roboto, Oxygen-Sans, Ubuntu, Cantarell, Helvetica Neue, sans-serif&quot;&gt;&lt;span style=&quot;background-color: rgb(247, 247, 247);&quot;&gt;&lt;b&gt;H&lt;span style=&quot;font-size: 10px;&quot;&gt;j&lt;/span&gt;&lt;/b&gt;&lt;/span&gt;&lt;/font&gt;&lt;/div&gt;" style="rounded=0;whiteSpace=wrap;html=1;" parent="1" vertex="1">
          <mxGeometry x="561" y="150" width="30" height="50" as="geometry" />
        </mxCell>
        <mxCell id="rs3FNmOiAIlKJfeYHdHE-88" value="" style="endArrow=classic;startArrow=classic;html=1;rounded=0;" parent="1" edge="1">
          <mxGeometry width="50" height="50" relative="1" as="geometry">
            <mxPoint x="551" y="100" as="sourcePoint" />
            <mxPoint x="551" y="150" as="targetPoint" />
          </mxGeometry>
        </mxCell>
        <mxCell id="rs3FNmOiAIlKJfeYHdHE-89" value="" style="endArrow=classic;startArrow=classic;html=1;rounded=0;" parent="1" edge="1">
          <mxGeometry width="50" height="50" relative="1" as="geometry">
            <mxPoint x="551" y="150" as="sourcePoint" />
            <mxPoint x="551" y="200" as="targetPoint" />
          </mxGeometry>
        </mxCell>
        <mxCell id="rs3FNmOiAIlKJfeYHdHE-90" value="&lt;b&gt;F&lt;/b&gt;" style="text;html=1;align=center;verticalAlign=middle;whiteSpace=wrap;rounded=0;" parent="1" vertex="1">
          <mxGeometry x="531" y="115" width="30" height="20" as="geometry" />
        </mxCell>
        <mxCell id="rs3FNmOiAIlKJfeYHdHE-91" value="&lt;b&gt;F&lt;/b&gt;" style="text;html=1;align=center;verticalAlign=middle;whiteSpace=wrap;rounded=0;" parent="1" vertex="1">
          <mxGeometry x="531" y="165" width="30" height="20" as="geometry" />
        </mxCell>
        <mxCell id="rs3FNmOiAIlKJfeYHdHE-96" value="" style="html=1;shadow=0;dashed=0;align=center;verticalAlign=top;shape=mxgraph.arrows2.arrow;dy=0.75;dx=13;notch=0;fillColor=#a20025;strokeColor=#6F0000;fontFamily=Helvetica;fontSize=12;fontColor=#ffffff;rotation=20;" parent="1" vertex="1">
          <mxGeometry x="370.32" y="305.99" width="188.62" height="20" as="geometry" />
        </mxCell>
        <mxCell id="rs3FNmOiAIlKJfeYHdHE-97" value="" style="verticalLabelPosition=bottom;verticalAlign=top;html=1;shape=mxgraph.basic.x;fillColor=#a20025;fontColor=#ffffff;strokeColor=#6F0000;" parent="1" vertex="1">
          <mxGeometry x="547.5" y="323.88" width="10" height="10" as="geometry" />
        </mxCell>
        <mxCell id="rs3FNmOiAIlKJfeYHdHE-98" value="" style="endArrow=classic;startArrow=classic;html=1;rounded=0;" parent="1" edge="1">
          <mxGeometry width="50" height="50" relative="1" as="geometry">
            <mxPoint x="518.5" y="370" as="sourcePoint" />
            <mxPoint x="597.5" y="370" as="targetPoint" />
          </mxGeometry>
        </mxCell>
        <mxCell id="rs3FNmOiAIlKJfeYHdHE-99" value="&lt;b&gt;F&lt;/b&gt;" style="text;html=1;align=center;verticalAlign=middle;whiteSpace=wrap;rounded=0;" parent="1" vertex="1">
          <mxGeometry x="547.5" y="350" width="30" height="20" as="geometry" />
        </mxCell>
        <mxCell id="rs3FNmOiAIlKJfeYHdHE-100" value="" style="endArrow=classic;startArrow=classic;html=1;rounded=0;" parent="1" edge="1">
          <mxGeometry width="50" height="50" relative="1" as="geometry">
            <mxPoint x="508.5" y="380" as="sourcePoint" />
            <mxPoint x="507.5" y="440" as="targetPoint" />
          </mxGeometry>
        </mxCell>
        <mxCell id="rs3FNmOiAIlKJfeYHdHE-102" value="&lt;b&gt;N&lt;/b&gt;" style="edgeLabel;html=1;align=center;verticalAlign=middle;resizable=0;points=[];" parent="rs3FNmOiAIlKJfeYHdHE-100" vertex="1" connectable="0">
          <mxGeometry x="-0.0317" y="-3" relative="1" as="geometry">
            <mxPoint as="offset" />
          </mxGeometry>
        </mxCell>
        <mxCell id="rs3FNmOiAIlKJfeYHdHE-101" value="&lt;div style=&quot;text-align: left;&quot;&gt;&lt;font face=&quot;-apple-system, system-ui, BlinkMacSystemFont, Segoe UI, Roboto, Oxygen-Sans, Ubuntu, Cantarell, Helvetica Neue, sans-serif&quot;&gt;&lt;span style=&quot;background-color: rgb(247, 247, 247);&quot;&gt;&lt;b&gt;Hout&lt;/b&gt;&lt;/span&gt;&lt;/font&gt;&lt;/div&gt;&lt;div style=&quot;text-align: left;&quot;&gt;&lt;font face=&quot;-apple-system, system-ui, BlinkMacSystemFont, Segoe UI, Roboto, Oxygen-Sans, Ubuntu, Cantarell, Helvetica Neue, sans-serif&quot;&gt;&lt;span style=&quot;background-color: rgb(247, 247, 247);&quot;&gt;&lt;b&gt;head 1&lt;/b&gt;&lt;/span&gt;&lt;/font&gt;&lt;/div&gt;" style="rounded=0;whiteSpace=wrap;html=1;" parent="1" vertex="1">
          <mxGeometry x="517.5" y="380" width="80" height="60" as="geometry" />
        </mxCell>
        <mxCell id="rs3FNmOiAIlKJfeYHdHE-104" value="......" style="text;html=1;align=center;verticalAlign=middle;whiteSpace=wrap;rounded=0;" parent="1" vertex="1">
          <mxGeometry x="600" y="395" width="60" height="30" as="geometry" />
        </mxCell>
        <mxCell id="rs3FNmOiAIlKJfeYHdHE-105" value="" style="endArrow=classic;startArrow=classic;html=1;rounded=0;" parent="1" edge="1">
          <mxGeometry width="50" height="50" relative="1" as="geometry">
            <mxPoint x="671" y="370" as="sourcePoint" />
            <mxPoint x="750" y="370" as="targetPoint" />
          </mxGeometry>
        </mxCell>
        <mxCell id="rs3FNmOiAIlKJfeYHdHE-106" value="&lt;b&gt;F&lt;/b&gt;" style="text;html=1;align=center;verticalAlign=middle;whiteSpace=wrap;rounded=0;" parent="1" vertex="1">
          <mxGeometry x="700" y="350" width="30" height="20" as="geometry" />
        </mxCell>
        <mxCell id="rs3FNmOiAIlKJfeYHdHE-107" value="" style="endArrow=classic;startArrow=classic;html=1;rounded=0;" parent="1" edge="1">
          <mxGeometry width="50" height="50" relative="1" as="geometry">
            <mxPoint x="661" y="380" as="sourcePoint" />
            <mxPoint x="660" y="440" as="targetPoint" />
          </mxGeometry>
        </mxCell>
        <mxCell id="rs3FNmOiAIlKJfeYHdHE-108" value="&lt;b&gt;N&lt;/b&gt;" style="edgeLabel;html=1;align=center;verticalAlign=middle;resizable=0;points=[];" parent="rs3FNmOiAIlKJfeYHdHE-107" vertex="1" connectable="0">
          <mxGeometry x="-0.0317" y="-3" relative="1" as="geometry">
            <mxPoint as="offset" />
          </mxGeometry>
        </mxCell>
        <mxCell id="rs3FNmOiAIlKJfeYHdHE-109" value="&lt;div style=&quot;text-align: left;&quot;&gt;&lt;font face=&quot;-apple-system, system-ui, BlinkMacSystemFont, Segoe UI, Roboto, Oxygen-Sans, Ubuntu, Cantarell, Helvetica Neue, sans-serif&quot;&gt;&lt;span style=&quot;background-color: rgb(247, 247, 247);&quot;&gt;&lt;b&gt;Hout&lt;/b&gt;&lt;/span&gt;&lt;/font&gt;&lt;/div&gt;&lt;div style=&quot;text-align: left;&quot;&gt;&lt;font face=&quot;-apple-system, system-ui, BlinkMacSystemFont, Segoe UI, Roboto, Oxygen-Sans, Ubuntu, Cantarell, Helvetica Neue, sans-serif&quot;&gt;&lt;span style=&quot;background-color: rgb(247, 247, 247);&quot;&gt;&lt;b&gt;head h&lt;/b&gt;&lt;/span&gt;&lt;/font&gt;&lt;/div&gt;" style="rounded=0;whiteSpace=wrap;html=1;" parent="1" vertex="1">
          <mxGeometry x="670" y="380" width="80" height="60" as="geometry" />
        </mxCell>
        <mxCell id="rs3FNmOiAIlKJfeYHdHE-110" value="" style="endArrow=classic;html=1;rounded=0;" parent="1" edge="1">
          <mxGeometry width="50" height="50" relative="1" as="geometry">
            <mxPoint x="552" y="440" as="sourcePoint" />
            <mxPoint x="552" y="491" as="targetPoint" />
          </mxGeometry>
        </mxCell>
        <mxCell id="rs3FNmOiAIlKJfeYHdHE-111" value="" style="endArrow=classic;html=1;rounded=0;" parent="1" edge="1">
          <mxGeometry width="50" height="50" relative="1" as="geometry">
            <mxPoint x="709.5" y="440" as="sourcePoint" />
            <mxPoint x="709.5" y="491" as="targetPoint" />
          </mxGeometry>
        </mxCell>
        <mxCell id="rs3FNmOiAIlKJfeYHdHE-112" value="" style="endArrow=classic;startArrow=classic;html=1;rounded=0;" parent="1" edge="1">
          <mxGeometry width="50" height="50" relative="1" as="geometry">
            <mxPoint x="542.31" y="502" as="sourcePoint" />
            <mxPoint x="750" y="502" as="targetPoint" />
          </mxGeometry>
        </mxCell>
        <mxCell id="rs3FNmOiAIlKJfeYHdHE-113" value="" style="endArrow=classic;startArrow=classic;html=1;rounded=0;" parent="1" edge="1">
          <mxGeometry width="50" height="50" relative="1" as="geometry">
            <mxPoint x="532.31" y="512" as="sourcePoint" />
            <mxPoint x="531.31" y="572" as="targetPoint" />
          </mxGeometry>
        </mxCell>
        <mxCell id="rs3FNmOiAIlKJfeYHdHE-114" value="&lt;b&gt;N&lt;/b&gt;" style="edgeLabel;html=1;align=center;verticalAlign=middle;resizable=0;points=[];" parent="rs3FNmOiAIlKJfeYHdHE-113" vertex="1" connectable="0">
          <mxGeometry x="-0.0317" y="-3" relative="1" as="geometry">
            <mxPoint as="offset" />
          </mxGeometry>
        </mxCell>
        <mxCell id="rs3FNmOiAIlKJfeYHdHE-115" value="&lt;div style=&quot;text-align: left;&quot;&gt;&lt;font face=&quot;-apple-system, system-ui, BlinkMacSystemFont, Segoe UI, Roboto, Oxygen-Sans, Ubuntu, Cantarell, Helvetica Neue, sans-serif&quot;&gt;&lt;span style=&quot;background-color: rgb(247, 247, 247);&quot;&gt;&lt;b&gt;Z&lt;/b&gt;&lt;/span&gt;&lt;/font&gt;&lt;/div&gt;" style="rounded=0;whiteSpace=wrap;html=1;" parent="1" vertex="1">
          <mxGeometry x="541.31" y="512" width="208.69" height="60" as="geometry" />
        </mxCell>
        <mxCell id="rs3FNmOiAIlKJfeYHdHE-116" value="&lt;b&gt;F * h&lt;/b&gt;" style="text;html=1;align=center;verticalAlign=middle;resizable=0;points=[];autosize=1;strokeColor=none;fillColor=none;" parent="1" vertex="1">
          <mxGeometry x="605" y="480" width="50" height="30" as="geometry" />
        </mxCell>
        <mxCell id="rs3FNmOiAIlKJfeYHdHE-117" value="" style="endArrow=classic;startArrow=classic;html=1;rounded=0;entryX=0.75;entryY=1;entryDx=0;entryDy=0;" parent="1" edge="1">
          <mxGeometry width="50" height="50" relative="1" as="geometry">
            <mxPoint x="679" y="211" as="sourcePoint" />
            <mxPoint x="748.5" y="210" as="targetPoint" />
            <Array as="points">
              <mxPoint x="749" y="210" />
            </Array>
          </mxGeometry>
        </mxCell>
        <mxCell id="PV5gssDlklPMAY2io8FK-1" value="&lt;span style=&quot;color: rgb(31, 31, 31); font-family: &amp;quot;Google Sans&amp;quot;, &amp;quot;Helvetica Neue&amp;quot;, Arial, sans-serif; font-size: 32px; text-align: left; text-wrap: wrap; background-color: rgb(255, 255, 255);&quot;&gt;σ&lt;/span&gt;" style="text;html=1;align=center;verticalAlign=middle;resizable=0;points=[];autosize=1;strokeColor=none;fillColor=none;" vertex="1" parent="1">
          <mxGeometry x="644" y="580" width="40" height="50" as="geometry" />
        </mxCell>
        <mxCell id="PV5gssDlklPMAY2io8FK-4" value="" style="endArrow=classic;html=1;rounded=0;" edge="1" parent="1">
          <mxGeometry width="50" height="50" relative="1" as="geometry">
            <mxPoint x="649" y="572" as="sourcePoint" />
            <mxPoint x="649" y="623" as="targetPoint" />
          </mxGeometry>
        </mxCell>
      </root>
    </mxGraphModel>
  </diagram>
</mxfile>
